Basalte-Volume.ufo
<glyph name="exclam" format="2">
	<advance width="329"/>
	<unicode hex="0021"/>
	<outline>
		<contour>
			<point x="121" y="0" type="line"/>
			<point x="242" y="0" type="line"/>
			<point x="242" y="164" type="line"/>
			<point x="121" y="34" type="line"/>
		</contour>
		<contour>
			<point x="141" y="679" type="line"/>
			<point x="141" y="250" type="line"/>
			<point x="212" y="250" type="line"/>
			<point x="249" y="800" type="line"/>
		</contour>
	</outline>
</glyph>
<glyph name="numbersign" format="2">
	<advance width="655"/>
	<unicode hex="0023"/>
	<outline>
		<contour>
			<point x="197" y="519" type="line"/>
			<point x="316" y="620" type="line"/>
			<point x="366" y="800" type="line"/>
			<point x="241" y="675" type="line"/>
		</contour>
		<contour>
			<point x="555" y="502" type="line"/>
			<point x="650" y="502" type="line"/>
			<point x="650" y="620" type="line"/>
		</contour>
		<contour>
			<point x="468" y="193" type="line"/>
			<point x="590" y="193" type="line"/>
			<point x="590" y="311" type="line"/>
		</contour>
		<contour>
			<point x="124" y="260" type="line"/>
			<point x="230" y="312" type="line"/>
			<point x="283" y="502" type="line"/>
			<point x="170" y="422" type="line"/>
		</contour>
		<contour>
			<point x="197" y="193" type="line"/>
			<point x="94" y="154" type="line"/>
			<point x="71" y="73" type="line"/>
			<point x="143" y="0" type="line"/>
		</contour>
		<contour>
			<point x="469" y="519" type="line"/>
			<point x="588" y="620" type="line"/>
			<point x="638" y="800" type="line"/>
			<point x="513" y="675" type="line"/>
		</contour>
		<contour>
			<point x="396" y="260" type="line"/>
			<point x="502" y="312" type="line"/>
			<point x="555" y="502" type="line"/>
			<point x="442" y="422" type="line"/>
		</contour>
		<contour>
			<point x="469" y="193" type="line"/>
			<point x="366" y="154" type="line"/>
			<point x="343" y="73" type="line"/>
			<point x="415" y="0" type="line"/>
		</contour>
	</outline>
</glyph>
<glyph name="dollar" format="2">
	<advance width="604"/>
	<unicode hex="0024"/>
	<outline>
		<contour>
			<point x="425" y="267" type="line"/>
			<point x="425" y="249" type="line" smooth="yes"/>
			<point x="425" y="208"/>
			<point x="415" y="177"/>
			<point x="391" y="150" type="curve" smooth="yes"/>
			<point x="303" y="50" type="line"/>
			<point x="473" y="50"/>
			<point x="540" y="106"/>
			<point x="540" y="242" type="curve" smooth="yes"/>
			<point x="540" y="370" type="line" smooth="yes"/>
			<point x="540" y="389"/>
			<point x="537" y="398"/>
			<point x="535" y="405" type="curve"/>
		</contour>
		<contour>
			<point x="421" y="564" type="line"/>
			<point x="421" y="531" type="line"/>
			<point x="536" y="531" type="line"/>
			<point x="536" y="558" type="line" smooth="yes"/>
			<point x="536" y="588"/>
			<point x="533" y="614"/>
			<point x="526" y="637" type="curve"/>
		</contour>
		<contour>
			<point x="201" y="503" type="line"/>
			<point x="123" y="412" type="line"/>
			<point x="111" y="421"/>
			<point x="101" y="431"/>
			<point x="101" y="446" type="curve" smooth="yes"/>
			<point x="101" y="459"/>
			<point x="104" y="470"/>
			<point x="113" y="480" type="curve" smooth="yes"/>
			<point x="213" y="597" type="line"/>
			<point x="204" y="587"/>
			<point x="201" y="572"/>
			<point x="201" y="549" type="curve" smooth="yes"/>
		</contour>
		<contour>
			<point x="212" y="204" type="curve"/>
			<point x="127" y="112" type="line"/>
			<point x="110" y="128"/>
			<point x="87" y="151"/>
			<point x="102" y="169" type="curve" smooth="yes"/>
			<point x="201" y="282" type="line"/>
			<point x="201" y="246" type="line" smooth="yes"/>
			<point x="201" y="222"/>
			<point x="210" y="212"/>
		</contour>
		<contour>
			<point x="291" y="750" type="line"/>
			<point x="291" y="730" type="line"/>
			<point x="349" y="749" type="line"/>
			<point x="349" y="800" type="line"/>
		</contour>
		<contour>
			<point x="289" y="428" type="line"/>
			<point x="349" y="476" type="line"/>
			<point x="349" y="613" type="line"/>
			<point x="289" y="543" type="line"/>
		</contour>
		<contour>
			<point x="289" y="144" type="line"/>
			<point x="349" y="188" type="line"/>
			<point x="349" y="343" type="line"/>
			<point x="289" y="273" type="line"/>
		</contour>
		<contour>
			<point x="349" y="52" type="line"/>
			<point x="304" y="52" type="line"/>
			<point x="289" y="33" type="line"/>
			<point x="289" y="0" type="line"/>
			<point x="349" y="0" type="line"/>
		</contour>
	</outline>
</glyph>
<glyph name="percent" format="2">
	<advance width="776"/>
	<unicode hex="0025"/>
	<outline>
		<contour>
			<point x="455" y="675" type="line"/>
			<point x="248" y="73" type="line"/>
			<point x="320" y="0" type="line"/>
			<point x="580" y="800" type="line"/>
		</contour>
		<component base="degree"/>
		<component base="degree" xOffset="438" yOffset="-481"/>
	</outline>
</glyph>
<glyph name="ampersand" format="2">
	<advance width="611"/>
	<unicode hex="0026"/>
	<outline>
		<contour>
			<point x="327" y="675" type="line"/>
			<point x="435" y="675" type="line"/>
			<point x="435" y="800" type="line"/>
		</contour>
		<contour>
			<point x="494" y="338" type="line"/>
			<point x="571" y="338" type="line"/>
			<point x="571" y="463" type="line"/>
			<point x="394" y="267" type="line"/>
			<point x="394" y="0" type="line"/>
			<point x="494" y="0" type="line"/>
		</contour>
		<contour>
			<point x="394" y="370" type="line"/>
			<point x="494" y="464" type="line"/>
			<point x="494" y="597" type="line"/>
			<point x="394" y="479" type="line"/>
		</contour>
		<contour>
			<point x="200" y="532" type="curve"/>
			<point x="133" y="453" type="line"/>
			<point x="87" y="492"/>
			<point x="105" y="535"/>
			<point x="112" y="543" type="curve" smooth="yes"/>
			<point x="212" y="660" type="line"/>
			<point x="203" y="650"/>
			<point x="200" y="635"/>
			<point x="200" y="612" type="curve" smooth="yes"/>
			<point x="200" y="544" type="line" smooth="yes"/>
			<point x="200" y="540"/>
			<point x="200" y="536"/>
		</contour>
		<contour>
			<point x="200" y="180" type="curve"/>
			<point x="122" y="92" type="line"/>
			<point x="108" y="108"/>
			<point x="100" y="129"/>
			<point x="100" y="153" type="curve" smooth="yes"/>
			<point x="100" y="176"/>
			<point x="103" y="191"/>
			<point x="112" y="201" type="curve" smooth="yes"/>
			<point x="212" y="318" type="line"/>
			<point x="203" y="308"/>
			<point x="200" y="293"/>
			<point x="200" y="270" type="curve" smooth="yes"/>
			<point x="200" y="192" type="line" smooth="yes"/>
			<point x="200" y="188"/>
			<point x="200" y="184"/>
		</contour>
	</outline>
</glyph>
<glyph name="parenleft" format="2">
	<advance width="313"/>
	<unicode hex="0028"/>
	<outline>
		<contour>
			<point x="101" y="398" type="curve" smooth="yes"/>
			<point x="101" y="205"/>
			<point x="166" y="42"/>
			<point x="255" y="-113" type="curve"/>
			<point x="303" y="-87" type="line"/>
			<point x="211" y="68"/>
			<point x="164" y="236"/>
			<point x="164" y="398" type="curve" smooth="yes"/>
			<point x="164" y="560"/>
			<point x="211" y="728"/>
			<point x="303" y="883" type="curve"/>
			<point x="171" y="734" type="line"/>
			<point x="128" y="630"/>
			<point x="101" y="521"/>
		</contour>
	</outline>
</glyph>
<glyph name="parenright" format="2">
	<advance width="313"/>
	<unicode hex="0029"/>
	<outline>
		<contour>
			<point x="243" y="398" type="curve" smooth="yes"/>
			<point x="243" y="591"/>
			<point x="176" y="772"/>
			<point x="87" y="927" type="curve"/>
			<point x="69" y="844" type="line"/>
			<point x="142" y="702"/>
			<point x="183" y="542"/>
			<point x="183" y="398" type="curve" smooth="yes"/>
			<point x="183" y="236"/>
			<point x="132" y="50"/>
			<point x="40" y="-105" type="curve"/>
			<point x="87" y="-131" type="line"/>
			<point x="176" y="24"/>
			<point x="243" y="205"/>
		</contour>
	</outline>
</glyph>
<glyph name="asterisk" format="2">
	<advance width="421"/>
	<unicode hex="002A"/>
	<outline>
		<contour>
			<point x="272" y="806" type="line"/>
			<point x="206" y="735" type="line"/>
			<point x="212" y="615" type="line"/>
			<point x="247" y="627" type="line"/>
		</contour>
		<contour>
			<point x="77" y="649" type="line"/>
			<point x="40" y="721" type="line"/>
			<point x="165" y="668" type="line"/>
			<point x="131" y="631" type="line"/>
		</contour>
		<contour>
			<point x="215" y="525" type="line"/>
			<point x="136" y="440" type="line"/>
			<point x="149" y="398" type="line"/>
		</contour>
		<contour>
			<point x="212" y="610" type="line"/>
			<point x="350" y="649" type="line"/>
			<point x="416" y="599" type="line"/>
			<point x="383" y="722" type="line"/>
			<point x="214" y="651" type="line"/>
		</contour>
		<contour>
			<point x="251" y="547" type="line"/>
			<point x="313" y="468" type="line"/>
			<point x="280" y="397" type="line"/>
			<point x="385" y="470" type="line"/>
			<point x="282" y="581" type="line"/>
		</contour>
	</outline>
</glyph>
<glyph name="plus" format="2">
	<advance width="495"/>
	<unicode hex="002B"/>
	<outline>
		<contour>
			<point x="356" y="326" type="line"/>
			<point x="465" y="326" type="line"/>
			<point x="465" y="444" type="line"/>
		</contour>
		<contour>
			<point x="307" y="326" type="line"/>
			<point x="218" y="237" type="line"/>
			<point x="218" y="168" type="line"/>
			<point x="307" y="168" type="line"/>
		</contour>
		<contour>
			<point x="218" y="514" type="line"/>
			<point x="218" y="357" type="line"/>
			<point x="307" y="444" type="line"/>
			<point x="307" y="603" type="line"/>
		</contour>
	</outline>
</glyph>
<glyph name="comma" format="2">
	<advance width="260"/>
	<unicode hex="002C"/>
	<outline>
		<contour>
			<point x="77" y="1" type="line"/>
			<point x="47" y="-153" type="line"/>
			<point x="101" y="-153" type="line"/>
			<point x="228" y="164" type="line"/>
		</contour>
	</outline>
</glyph>
<glyph name="zero" format="2">
	<advance width="596"/>
	<unicode hex="0030"/>
	<outline>
		<contour>
			<point x="431" y="616" type="line"/>
			<point x="431" y="185" type="line" smooth="yes"/>
			<point x="431" y="92"/>
			<point x="391" y="33"/>
			<point x="331" y="-10" type="curve"/>
			<point x="473" y="-3"/>
			<point x="531" y="58"/>
			<point x="531" y="185" type="curve" smooth="yes"/>
			<point x="531" y="621" type="line" smooth="yes"/>
			<point x="531" y="658"/>
			<point x="526" y="690"/>
			<point x="515" y="715" type="curve"/>
		</contour>
		<contour>
			<point x="200" y="180" type="curve"/>
			<point x="122" y="92" type="line"/>
			<point x="108" y="108"/>
			<point x="100" y="129"/>
			<point x="100" y="153" type="curve" smooth="yes"/>
			<point x="100" y="491" type="line" smooth="yes"/>
			<point x="100" y="514"/>
			<point x="103" y="529"/>
			<point x="112" y="539" type="curve" smooth="yes"/>
			<point x="212" y="656" type="line"/>
			<point x="203" y="646"/>
			<point x="200" y="638"/>
			<point x="200" y="615" type="curve" smooth="yes"/>
			<point x="200" y="199" type="line" smooth="yes"/>
			<point x="200" y="195"/>
			<point x="200" y="184"/>
		</contour>
	</outline>
</glyph>
<glyph name="one" format="2">
	<advance width="336"/>
	<unicode hex="0031"/>
	<outline>
		<contour>
			<point x="156" y="671" type="line"/>
			<point x="156" y="0" type="line"/>
			<point x="256" y="0" type="line"/>
			<point x="256" y="800" type="line"/>
		</contour>
	</outline>
</glyph>
<glyph name="two" format="2">
	<advance width="575"/>
	<unicode hex="0032"/>
	<outline>
		<contour>
			<point x="412" y="613" type="line"/>
			<point x="412" y="567" type="line" smooth="yes"/>
			<point x="412" y="514"/>
			<point x="394" y="476"/>
			<point x="352" y="429" type="curve" smooth="yes"/>
			<point x="75" y="122" type="line"/>
			<point x="75" y="0" type="line"/>
			<point x="97" y="0" type="line"/>
			<point x="403" y="330" type="line" smooth="yes"/>
			<point x="480" y="413"/>
			<point x="512" y="464"/>
			<point x="512" y="552" type="curve" smooth="yes"/>
			<point x="512" y="618" type="line" smooth="yes"/>
			<point x="512" y="655"/>
			<point x="507" y="687"/>
			<point x="496" y="712" type="curve"/>
		</contour>
		<contour>
			<point x="177" y="538" type="line"/>
			<point x="89" y="538" type="line"/>
			<point x="189" y="656" type="line"/>
			<point x="180" y="646"/>
			<point x="177" y="631"/>
			<point x="177" y="608" type="curve" smooth="yes"/>
		</contour>
		<contour>
			<point x="360" y="0" type="line"/>
			<point x="503" y="0" type="line"/>
			<point x="503" y="130" type="line"/>
		</contour>
	</outline>
</glyph>
<glyph name="three" format="2">
	<advance width="556"/>
	<unicode hex="0033"/>
	<outline>
		<contour>
			<point x="369" y="670" type="line"/>
			<point x="198" y="375" type="line"/>
			<point x="241" y="353" type="line"/>
			<point x="345" y="465" type="line"/>
			<point x="491" y="716" type="line"/>
			<point x="491" y="800" type="line"/>
		</contour>
		<contour>
			<point x="395" y="301" type="line"/>
			<point x="395" y="117" type="line" smooth="yes"/>
			<point x="395" y="54"/>
			<point x="367" y="3"/>
			<point x="308" y="-8" type="curve"/>
			<point x="426" y="-1"/>
			<point x="499" y="45"/>
			<point x="499" y="182" type="curve" smooth="yes"/>
			<point x="499" y="319" type="line" smooth="yes"/>
			<point x="499" y="356"/>
			<point x="495" y="375"/>
			<point x="483" y="400" type="curve"/>
		</contour>
		<contour>
			<point x="191" y="134" type="curve"/>
			<point x="110" y="42" type="line"/>
			<point x="81" y="62"/>
			<point x="61" y="98"/>
			<point x="60" y="127" type="curve"/>
			<point x="164" y="237" type="line"/>
			<point x="164" y="192" type="line" smooth="yes"/>
			<point x="164" y="160"/>
			<point x="172" y="142"/>
		</contour>
	</outline>
</glyph>
<glyph name="four" format="2">
	<advance width="589"/>
	<unicode hex="0034"/>
	<outline>
		<contour>
			<point x="356" y="680" type="line"/>
			<point x="356" y="185" type="line"/>
			<point x="456" y="305" type="line"/>
			<point x="456" y="800" type="line"/>
		</contour>
		<contour>
			<point x="473" y="175" type="line"/>
			<point x="574" y="175" type="line"/>
			<point x="574" y="305" type="line"/>
		</contour>
		<contour>
			<point x="358" y="50" type="line"/>
			<point x="358" y="0" type="line"/>
			<point x="456" y="0" type="line"/>
			<point x="456" y="175" type="line"/>
		</contour>
		<contour>
			<point x="321" y="684" type="line"/>
			<point x="171" y="487" type="line"/>
			<point x="42" y="183" type="line"/>
			<point x="164" y="305" type="line"/>
		</contour>
	</outline>
</glyph>
<glyph name="five" format="2">
	<advance width="571"/>
	<unicode hex="0035"/>
	<outline>
		<contour>
			<point x="416" y="295" type="line"/>
			<point x="416" y="117" type="line" smooth="yes"/>
			<point x="416" y="54"/>
			<point x="388" y="3"/>
			<point x="329" y="-8" type="curve"/>
			<point x="447" y="-1"/>
			<point x="520" y="45"/>
			<point x="520" y="182" type="curve" smooth="yes"/>
			<point x="520" y="314" type="line" smooth="yes"/>
			<point x="520" y="351"/>
			<point x="516" y="373"/>
			<point x="504" y="398" type="curve"/>
		</contour>
		<contour>
			<point x="212" y="134" type="curve"/>
			<point x="127" y="39" type="line"/>
			<point x="98" y="59"/>
			<point x="82" y="98"/>
			<point x="81" y="127" type="curve"/>
			<point x="185" y="237" type="line"/>
			<point x="185" y="192" type="line" smooth="yes"/>
			<point x="185" y="160"/>
			<point x="193" y="142"/>
		</contour>
		<contour>
			<point x="386" y="670" type="line"/>
			<point x="511" y="670" type="line"/>
			<point x="511" y="800" type="line"/>
		</contour>
		<contour>
			<point x="121" y="554" type="line"/>
			<point x="105" y="378" type="line"/>
			<point x="207" y="469" type="line"/>
			<point x="227" y="670" type="line"/>
		</contour>
	</outline>
</glyph>
<glyph name="six" format="2">
	<advance width="604"/>
	<unicode hex="0036"/>
	<outline>
		<contour>
			<point x="439" y="273" type="line"/>
			<point x="439" y="182" type="line" smooth="yes"/>
			<point x="439" y="89"/>
			<point x="399" y="34"/>
			<point x="335" y="-9" type="curve"/>
			<point x="481" y="-2"/>
			<point x="539" y="55"/>
			<point x="539" y="182" type="curve" smooth="yes"/>
			<point x="539" y="278" type="line" smooth="yes"/>
			<point x="539" y="315"/>
			<point x="534" y="347"/>
			<point x="523" y="372" type="curve"/>
		</contour>
		<contour>
			<point x="200" y="180" type="curve"/>
			<point x="122" y="92" type="line"/>
			<point x="108" y="108"/>
			<point x="100" y="129"/>
			<point x="100" y="153" type="curve" smooth="yes"/>
			<point x="100" y="175"/>
			<point x="102" y="192"/>
			<point x="112" y="204" type="curve" smooth="yes"/>
			<point x="212" y="321" type="line"/>
			<point x="203" y="311"/>
			<point x="200" y="296"/>
			<point x="200" y="273" type="curve" smooth="yes"/>
			<point x="200" y="192" type="line" smooth="yes"/>
			<point x="200" y="188"/>
			<point x="200" y="184"/>
		</contour>
		<contour>
			<point x="200" y="447" type="line"/>
			<point x="100" y="328" type="line"/>
			<point x="100" y="501" type="line" smooth="yes"/>
			<point x="100" y="524"/>
			<point x="103" y="539"/>
			<point x="112" y="549" type="curve" smooth="yes"/>
			<point x="212" y="666" type="line"/>
			<point x="203" y="656"/>
			<point x="200" y="641"/>
			<point x="200" y="618" type="curve" smooth="yes"/>
		</contour>
		<contour>
			<point x="439" y="613" type="line"/>
			<point x="439" y="544" type="line"/>
			<point x="539" y="544" type="line"/>
			<point x="539" y="618" type="line" smooth="yes"/>
			<point x="539" y="655"/>
			<point x="534" y="687"/>
			<point x="523" y="712" type="curve"/>
		</contour>
	</outline>
</glyph>
<glyph name="seven" format="2">
	<advance width="497"/>
	<unicode hex="0037"/>
	<outline>
		<contour>
			<point x="117" y="0" type="line"/>
			<point x="235" y="0" type="line"/>
			<point x="464" y="670" type="line"/>
			<point x="464" y="800" type="line"/>
			<point x="351" y="671" type="line"/>
		</contour>
	</outline>
</glyph>
<glyph name="eight" format="2">
	<advance width="600"/>
	<unicode hex="0038"/>
	<guideline x="194" y="627" angle="0"/>
	<outline>
		<contour>
			<point x="424" y="242" type="line"/>
			<point x="424" y="192" type="line" smooth="yes"/>
			<point x="424" y="139"/>
			<point x="414" y="112"/>
			<point x="302" y="-10" type="curve"/>
			<point x="484" y="-4"/>
			<point x="531" y="58"/>
			<point x="531" y="185" type="curve" smooth="yes"/>
			<point x="531" y="267" type="line" smooth="yes"/>
			<point x="531" y="304"/>
			<point x="529" y="321"/>
			<point x="515" y="344" type="curve"/>
		</contour>
		<contour>
			<point x="432" y="623" type="line"/>
			<point x="431" y="545" type="line" smooth="yes"/>
			<point x="431" y="512"/>
			<point x="416" y="483"/>
			<point x="369" y="458" type="curve"/>
			<point x="458" y="401" type="line"/>
			<point x="515" y="436"/>
			<point x="531" y="477"/>
			<point x="531" y="526" type="curve" smooth="yes"/>
			<point x="531" y="634" type="line" smooth="yes"/>
			<point x="531" y="664"/>
			<point x="524" y="696"/>
			<point x="513" y="719" type="curve"/>
		</contour>
		<contour>
			<point x="224" y="473" type="curve"/>
			<point x="164" y="421" type="line"/>
			<point x="111" y="447"/>
			<point x="86" y="510"/>
			<point x="106" y="534" type="curve" smooth="yes"/>
			<point x="212" y="661" type="line"/>
			<point x="203" y="651"/>
			<point x="200" y="634"/>
			<point x="200" y="616" type="curve" smooth="yes"/>
			<point x="200" y="530" type="line" smooth="yes"/>
			<point x="200" y="490"/>
			<point x="211" y="480"/>
		</contour>
		<contour>
			<point x="224" y="132" type="curve"/>
			<point x="157" y="55" type="line"/>
			<point x="107" y="85"/>
			<point x="99" y="170"/>
			<point x="108" y="195" type="curve"/>
			<point x="212" y="320" type="line"/>
			<point x="203" y="310"/>
			<point x="200" y="293"/>
			<point x="200" y="275" type="curve" smooth="yes"/>
			<point x="200" y="189" type="line" smooth="yes"/>
			<point x="200" y="149"/>
			<point x="211" y="139"/>
		</contour>
	</outline>
</glyph>
<glyph name="nine" format="2">
	<advance width="600"/>
	<unicode hex="0039"/>
	<outline>
		<contour>
			<point x="226" y="129" type="curve"/>
			<point x="150" y="37" type="line"/>
			<point x="121" y="57"/>
			<point x="97" y="96"/>
			<point x="96" y="125" type="curve"/>
			<point x="199" y="226" type="line"/>
			<point x="199" y="187" type="line" smooth="yes"/>
			<point x="199" y="155"/>
			<point x="207" y="137"/>
		</contour>
		<contour>
			<point x="438" y="616" type="line"/>
			<point x="438" y="185" type="line" smooth="yes"/>
			<point x="438" y="92"/>
			<point x="398" y="33"/>
			<point x="338" y="-10" type="curve"/>
			<point x="480" y="-3"/>
			<point x="538" y="58"/>
			<point x="538" y="185" type="curve" smooth="yes"/>
			<point x="538" y="621" type="line" smooth="yes"/>
			<point x="538" y="658"/>
			<point x="533" y="690"/>
			<point x="522" y="715" type="curve"/>
		</contour>
		<contour>
			<point x="200" y="489" type="curve"/>
			<point x="122" y="401" type="line"/>
			<point x="108" y="417"/>
			<point x="100" y="438"/>
			<point x="100" y="462" type="curve" smooth="yes"/>
			<point x="100" y="497" type="line" smooth="yes"/>
			<point x="100" y="520"/>
			<point x="103" y="535"/>
			<point x="112" y="545" type="curve" smooth="yes"/>
			<point x="212" y="662" type="line"/>
			<point x="203" y="652"/>
			<point x="200" y="638"/>
			<point x="200" y="615" type="curve" smooth="yes"/>
			<point x="200" y="508" type="line" smooth="yes"/>
			<point x="200" y="504"/>
			<point x="200" y="493"/>
		</contour>
	</outline>
</glyph>
<glyph name="less" format="2">
	<advance width="534"/>
	<unicode hex="003C"/>
	<outline>
		<contour>
			<point x="45" y="477" type="line"/>
			<point x="94" y="448" type="line"/>
			<point x="436" y="613" type="line"/>
			<point x="484" y="552" type="line"/>
			<point x="484" y="689" type="line"/>
		</contour>
		<contour>
			<point x="191" y="416" type="line"/>
			<point x="116" y="376" type="line"/>
			<point x="436" y="218" type="line"/>
			<point x="483" y="281" type="line"/>
		</contour>
	</outline>
</glyph>
<glyph name="greater" format="2">
	<advance width="534"/>
	<unicode hex="003E"/>
	<outline>
		<contour>
			<point x="489" y="477" type="line"/>
			<point x="50" y="689" type="line"/>
			<point x="99" y="616" type="line"/>
			<point x="439" y="441" type="line"/>
			<point x="439" y="379" type="line"/>
			<point x="355" y="288" type="line"/>
			<point x="489" y="355" type="line"/>
		</contour>
		<contour>
			<point x="342" y="416" type="line"/>
			<point x="50" y="281" type="line"/>
			<point x="95" y="222" type="line"/>
			<point x="209" y="268" type="line"/>
		</contour>
	</outline>
</glyph>
<glyph name="question" format="2">
	<advance width="554"/>
	<unicode hex="003F"/>
	<outline>
		<contour>
			<point x="177" y="550" type="line"/>
			<point x="97" y="550" type="line"/>
			<point x="189" y="656" type="line"/>
			<point x="180" y="646"/>
			<point x="177" y="631"/>
			<point x="177" y="608" type="curve" smooth="yes"/>
		</contour>
		<contour>
			<point x="404" y="554" type="line" smooth="yes"/>
			<point x="404" y="525"/>
			<point x="400" y="506"/>
			<point x="378" y="476" type="curve" smooth="yes"/>
			<point x="212" y="250" type="line"/>
			<point x="328" y="250" type="line"/>
			<point x="328" y="295" type="line" smooth="yes"/>
			<point x="328" y="318"/>
			<point x="341" y="337"/>
			<point x="366" y="357" type="curve" smooth="yes"/>
			<point x="437" y="415" type="line" smooth="yes"/>
			<point x="481" y="451"/>
			<point x="512" y="506"/>
			<point x="512" y="575" type="curve" smooth="yes"/>
			<point x="512" y="618" type="line" smooth="yes"/>
			<point x="512" y="655"/>
			<point x="507" y="687"/>
			<point x="496" y="712" type="curve"/>
			<point x="404" y="608" type="line"/>
		</contour>
		<contour>
			<point x="212" y="0" type="line"/>
			<point x="333" y="0" type="line"/>
			<point x="333" y="164" type="line"/>
			<point x="212" y="34" type="line"/>
		</contour>
	</outline>
</glyph>
<glyph name="at" format="2">
	<advance width="689"/>
	<unicode hex="0040"/>
	<outline>
		<contour>
			<point x="539" y="613" type="line"/>
			<point x="539" y="399" type="line" smooth="yes"/>
			<point x="539" y="306"/>
			<point x="498" y="251"/>
			<point x="434" y="208" type="curve"/>
			<point x="618" y="198"/>
			<point x="639" y="275"/>
			<point x="639" y="337" type="curve" smooth="yes"/>
			<point x="639" y="618" type="line" smooth="yes"/>
			<point x="639" y="655"/>
			<point x="635" y="687"/>
			<point x="624" y="712" type="curve"/>
		</contour>
		<contour>
			<point x="204" y="180" type="curve"/>
			<point x="122" y="92" type="line"/>
			<point x="108" y="108"/>
			<point x="100" y="129"/>
			<point x="100" y="153" type="curve" smooth="yes"/>
			<point x="100" y="491" type="line" smooth="yes"/>
			<point x="100" y="514"/>
			<point x="103" y="529"/>
			<point x="112" y="539" type="curve" smooth="yes"/>
			<point x="212" y="656" type="line"/>
			<point x="203" y="646"/>
			<point x="200" y="631"/>
			<point x="200" y="608" type="curve" smooth="yes"/>
			<point x="200" y="212" type="line" smooth="yes"/>
			<point x="200" y="201"/>
			<point x="201" y="192"/>
		</contour>
		<contour>
			<point x="503" y="0" type="line"/>
			<point x="628" y="0" type="line"/>
			<point x="628" y="135" type="line"/>
		</contour>
		<contour>
			<point x="422" y="362" type="curve"/>
			<point x="340" y="274" type="line"/>
			<point x="326" y="290"/>
			<point x="318" y="311"/>
			<point x="318" y="335" type="curve" smooth="yes"/>
			<point x="318" y="482" type="line"/>
			<point x="418" y="590" type="line"/>
			<point x="418" y="397" type="line" smooth="yes"/>
			<point x="418" y="386"/>
			<point x="419" y="372"/>
		</contour>
	</outline>
</glyph>
<glyph name="A" format="2">
	<advance width="510"/>
	<unicode hex="0041"/>
	<unicode hex="0061"/>
	<anchor x="255" y="800" name="top"/>
	<outline>
		<contour>
			<point x="243" y="696" type="line"/>
			<point x="353" y="259" type="line"/>
			<point x="264" y="151" type="line"/>
			<point x="353" y="151" type="line"/>
			<point x="379" y="134" type="line"/>
			<point x="419" y="0" type="line"/>
			<point x="516" y="0" type="line"/>
			<point x="317" y="800" type="line"/>
		</contour>
		<contour>
			<point x="44" y="81" type="line"/>
			<point x="25" y="0" type="line"/>
			<point x="122" y="0" type="line"/>
			<point x="159" y="150" type="line"/>
		</contour>
		<contour>
			<point x="140" y="468" type="line"/>
			<point x="73" y="198" type="line"/>
			<point x="188" y="267" type="line"/>
			<point x="255" y="537" type="line"/>
		</contour>
	</outline>
</glyph>
<glyph name="B" format="2">
	<advance width="619"/>
	<unicode hex="0042"/>
	<unicode hex="0062"/>
	<outline>
		<contour>
			<point x="115" y="552" type="line"/>
			<point x="115" y="360" type="line"/>
			<point x="215" y="478" type="line"/>
			<point x="215" y="670" type="line"/>
		</contour>
		<contour>
			<point x="115" y="236" type="line"/>
			<point x="115" y="12" type="line"/>
			<point x="215" y="130" type="line"/>
			<point x="215" y="354" type="line"/>
		</contour>
		<contour>
			<point x="454" y="329" type="line"/>
			<point x="454" y="171" type="line" smooth="yes"/>
			<point x="454" y="78"/>
			<point x="435" y="43"/>
			<point x="371" y="0" type="curve"/>
			<point x="491" y="0"/>
			<point x="554" y="52"/>
			<point x="554" y="179" type="curve" smooth="yes"/>
			<point x="554" y="316" type="line" smooth="yes"/>
			<point x="554" y="353"/>
			<point x="537" y="389"/>
			<point x="506" y="404" type="curve"/>
		</contour>
		<contour>
			<point x="454" y="658" type="line"/>
			<point x="531" y="749" type="line"/>
			<point x="531" y="749" type="line"/>
			<point x="547" y="725"/>
			<point x="554" y="692"/>
			<point x="554" y="649" type="curve" smooth="yes"/>
			<point x="554" y="538" type="line" smooth="yes"/>
			<point x="554" y="476"/>
			<point x="518" y="438"/>
			<point x="462" y="426" type="curve"/>
			<point x="370" y="470" type="line"/>
			<point x="416" y="469"/>
			<point x="454" y="494"/>
			<point x="454" y="547" type="curve" smooth="yes"/>
		</contour>
	</outline>
</glyph>
<glyph name="C" format="2">
	<advance width="595"/>
	<unicode hex="0043"/>
	<unicode hex="0063"/>
	<outline>
		<contour>
			<point x="439" y="176" type="line"/>
			<point x="439" y="154" type="line" smooth="yes"/>
			<point x="439" y="60"/>
			<point x="429" y="19"/>
			<point x="396" y="-3" type="curve"/>
			<point x="502" y="15"/>
			<point x="539" y="73"/>
			<point x="539" y="182" type="curve" smooth="yes"/>
			<point x="539" y="295" type="line"/>
		</contour>
		<contour>
			<point x="200" y="180" type="curve"/>
			<point x="122" y="92" type="line"/>
			<point x="108" y="108"/>
			<point x="100" y="129"/>
			<point x="100" y="153" type="curve" smooth="yes"/>
			<point x="100" y="491" type="line" smooth="yes"/>
			<point x="100" y="514"/>
			<point x="103" y="529"/>
			<point x="112" y="539" type="curve" smooth="yes"/>
			<point x="212" y="656" type="line"/>
			<point x="203" y="646"/>
			<point x="200" y="631"/>
			<point x="200" y="608" type="curve" smooth="yes"/>
			<point x="200" y="192" type="line" smooth="yes"/>
			<point x="200" y="188"/>
			<point x="200" y="184"/>
		</contour>
		<contour>
			<point x="404" y="608" type="line"/>
			<point x="404" y="534" type="line"/>
			<point x="539" y="534" type="line"/>
			<point x="539" y="618" type="line" smooth="yes"/>
			<point x="539" y="667"/>
			<point x="531" y="708"/>
			<point x="512" y="738" type="curve"/>
		</contour>
	</outline>
</glyph>
<glyph name="D" format="2">
	<advance width="619"/>
	<unicode hex="0044"/>
	<unicode hex="0064"/>
	<outline>
		<contour>
			<point x="115" y="547" type="line"/>
			<point x="115" y="17" type="line"/>
			<point x="215" y="135" type="line"/>
			<point x="215" y="665" type="line"/>
		</contour>
		<contour>
			<point x="454" y="603" type="line"/>
			<point x="454" y="192" type="line" smooth="yes"/>
			<point x="454" y="99"/>
			<point x="421" y="43"/>
			<point x="357" y="0" type="curve"/>
			<point x="487" y="0"/>
			<point x="554" y="65"/>
			<point x="554" y="192" type="curve" smooth="yes"/>
			<point x="554" y="608" type="line" smooth="yes"/>
			<point x="554" y="645"/>
			<point x="549" y="676"/>
			<point x="538" y="701" type="curve"/>
		</contour>
	</outline>
</glyph>
<glyph name="F" format="2">
	<advance width="513"/>
	<unicode hex="0046"/>
	<unicode hex="0066"/>
	<outline>
		<contour>
			<point x="115" y="552" type="line"/>
			<point x="115" y="351" type="line"/>
			<point x="215" y="469" type="line"/>
			<point x="215" y="670" type="line"/>
		</contour>
		<contour>
			<point x="115" y="221" type="line"/>
			<point x="115" y="0" type="line"/>
			<point x="215" y="0" type="line"/>
			<point x="215" y="339" type="line"/>
		</contour>
		<contour>
			<point x="383" y="670" type="line"/>
			<point x="493" y="670" type="line"/>
			<point x="493" y="800" type="line"/>
		</contour>
		<contour>
			<point x="312" y="339" type="line"/>
			<point x="422" y="339" type="line"/>
			<point x="422" y="469" type="line"/>
		</contour>
	</outline>
</glyph>
<glyph name="G" format="2">
	<advance width="604"/>
	<unicode hex="0047"/>
	<unicode hex="0067"/>
	<outline>
		<contour>
			<point x="428" y="311" type="line"/>
			<point x="428" y="192" type="line" smooth="yes"/>
			<point x="428" y="169"/>
			<point x="424" y="156"/>
			<point x="397" y="124" type="curve" smooth="yes"/>
			<point x="284" y="-10" type="line"/>
			<point x="291" y="-10"/>
			<point x="290" y="-10"/>
			<point x="302" y="-10" type="curve" smooth="yes"/>
			<point x="482" y="-10"/>
			<point x="539" y="46"/>
			<point x="539" y="182" type="curve" smooth="yes"/>
			<point x="539" y="441" type="line"/>
		</contour>
		<contour>
			<point x="200" y="180" type="curve"/>
			<point x="122" y="92" type="line"/>
			<point x="108" y="108"/>
			<point x="100" y="129"/>
			<point x="100" y="153" type="curve" smooth="yes"/>
			<point x="100" y="491" type="line" smooth="yes"/>
			<point x="100" y="514"/>
			<point x="103" y="529"/>
			<point x="112" y="539" type="curve" smooth="yes"/>
			<point x="211" y="658" type="line"/>
			<point x="202" y="648"/>
			<point x="200" y="631"/>
			<point x="200" y="608" type="curve" smooth="yes"/>
			<point x="200" y="192" type="line" smooth="yes"/>
			<point x="200" y="188"/>
			<point x="200" y="184"/>
		</contour>
		<contour>
			<point x="404" y="534" type="line"/>
			<point x="539" y="534" type="line"/>
			<point x="539" y="618" type="line" smooth="yes"/>
			<point x="539" y="656"/>
			<point x="536" y="672"/>
			<point x="532" y="688" type="curve"/>
		</contour>
	</outline>
</glyph>
<glyph name="H" format="2">
	<advance width="634"/>
	<unicode hex="0048"/>
	<unicode hex="0068"/>
	<outline>
		<contour>
			<point x="115" y="682" type="line"/>
			<point x="115" y="346" type="line"/>
			<point x="215" y="464" type="line"/>
			<point x="215" y="800" type="line"/>
		</contour>
		<contour>
			<point x="454" y="682" type="line"/>
			<point x="454" y="0" type="line"/>
			<point x="554" y="0" type="line"/>
			<point x="554" y="800" type="line"/>
		</contour>
		<contour>
			<point x="115" y="216" type="line"/>
			<point x="115" y="0" type="line"/>
			<point x="215" y="0" type="line"/>
			<point x="215" y="334" type="line"/>
		</contour>
	</outline>
</glyph>
<glyph name="J" format="2">
	<advance width="499"/>
	<unicode hex="004A"/>
	<unicode hex="006A"/>
	<outline>
		<contour>
			<point x="324" y="673" type="line"/>
			<point x="324" y="190" type="line" smooth="yes"/>
			<point x="324" y="149"/>
			<point x="312" y="112"/>
			<point x="278" y="71" type="curve" smooth="yes"/>
			<point x="212" y="-10" type="line"/>
			<point x="372" y="-10"/>
			<point x="424" y="46"/>
			<point x="424" y="182" type="curve" smooth="yes"/>
			<point x="424" y="800" type="line"/>
		</contour>
		<contour>
			<point x="138" y="162" type="curve"/>
			<point x="57" y="72" type="line"/>
			<point x="43" y="88"/>
			<point x="35" y="110"/>
			<point x="35" y="133" type="curve" smooth="yes"/>
			<point x="35" y="211" type="line"/>
			<point x="135" y="302" type="line"/>
			<point x="135" y="192" type="line" smooth="yes"/>
			<point x="135" y="180"/>
			<point x="136" y="170"/>
		</contour>
	</outline>
</glyph>
<glyph name="K" format="2">
	<advance width="579"/>
	<unicode hex="004B"/>
	<unicode hex="006B"/>
	<outline>
		<contour>
			<point x="115" y="672" type="line"/>
			<point x="115" y="367" type="line"/>
			<point x="215" y="505" type="line"/>
			<point x="215" y="800" type="line"/>
		</contour>
		<contour>
			<point x="207" y="435" type="line"/>
			<point x="460" y="0" type="line"/>
			<point x="584" y="0" type="line"/>
			<point x="320" y="449" type="line"/>
			<point x="579" y="800" type="line"/>
			<point x="399" y="699" type="line"/>
		</contour>
		<contour>
			<point x="115" y="294" type="line"/>
			<point x="115" y="0" type="line"/>
			<point x="215" y="0" type="line"/>
			<point x="215" y="357" type="line"/>
			<point x="193" y="396" type="line"/>
		</contour>
	</outline>
</glyph>
<glyph name="L" format="2">
	<advance width="418"/>
	<unicode hex="004C"/>
	<unicode hex="006C"/>
	<outline>
		<contour>
			<point x="115" y="682" type="line"/>
			<point x="115" y="12" type="line"/>
			<point x="215" y="130" type="line"/>
			<point x="215" y="800" type="line"/>
		</contour>
		<contour>
			<point x="323" y="0" type="line"/>
			<point x="433" y="0" type="line"/>
			<point x="433" y="130" type="line"/>
		</contour>
	</outline>
</glyph>
<glyph name="M" format="2">
	<advance width="754"/>
	<unicode hex="004D"/>
	<unicode hex="006D"/>
	<outline>
		<contour>
			<point x="574" y="641" type="line"/>
			<point x="574" y="0" type="line"/>
			<point x="674" y="0" type="line"/>
			<point x="674" y="800" type="line"/>
		</contour>
		<contour>
			<point x="409" y="424" type="line"/>
			<point x="344" y="172" type="line"/>
			<point x="392" y="0" type="line"/>
			<point x="397" y="0" type="line"/>
			<point x="539" y="513" type="line"/>
			<point x="539" y="578" type="line"/>
		</contour>
		<contour>
			<point x="206" y="677" type="line"/>
			<point x="327" y="234" type="line"/>
			<point x="377" y="441" type="line"/>
			<point x="291" y="800" type="line"/>
		</contour>
		<contour>
			<point x="115" y="426" type="line"/>
			<point x="115" y="0" type="line"/>
			<point x="215" y="0" type="line"/>
			<point x="215" y="515" type="line"/>
			<point x="197" y="580" type="line"/>
		</contour>
	</outline>
</glyph>
<glyph name="N" format="2">
	<advance width="634"/>
	<unicode hex="004E"/>
	<unicode hex="006E"/>
	<anchor x="324" y="800" name="top"/>
	<outline>
		<contour>
			<point x="463" y="693" type="line"/>
			<point x="463" y="0" type="line"/>
			<point x="554" y="0" type="line"/>
			<point x="554" y="800" type="line"/>
		</contour>
		<contour>
			<point x="114" y="405" type="line"/>
			<point x="114" y="0" type="line"/>
			<point x="205" y="0" type="line"/>
			<point x="205" y="512" type="line"/>
		</contour>
		<contour>
			<point x="167" y="688" type="line"/>
			<point x="429" y="35" type="line"/>
			<point x="429" y="360" type="line"/>
			<point x="265" y="800" type="line"/>
		</contour>
	</outline>
</glyph>
<glyph name="O" format="2">
	<advance width="604"/>
	<unicode hex="004F"/>
	<unicode hex="006F"/>
	<anchor x="302" y="800" name="top"/>
	<outline>
		<contour>
			<point x="439" y="613" type="line"/>
			<point x="439" y="182" type="line" smooth="yes"/>
			<point x="439" y="89"/>
			<point x="399" y="34"/>
			<point x="335" y="-9" type="curve"/>
			<point x="481" y="-2"/>
			<point x="539" y="55"/>
			<point x="539" y="182" type="curve" smooth="yes"/>
			<point x="539" y="618" type="line" smooth="yes"/>
			<point x="539" y="655"/>
			<point x="534" y="687"/>
			<point x="523" y="712" type="curve"/>
		</contour>
		<contour>
			<point x="200" y="180" type="curve"/>
			<point x="122" y="92" type="line"/>
			<point x="108" y="108"/>
			<point x="100" y="129"/>
			<point x="100" y="153" type="curve" smooth="yes"/>
			<point x="100" y="491" type="line" smooth="yes"/>
			<point x="100" y="514"/>
			<point x="103" y="529"/>
			<point x="112" y="539" type="curve" smooth="yes"/>
			<point x="212" y="656" type="line"/>
			<point x="203" y="646"/>
			<point x="200" y="631"/>
			<point x="200" y="608" type="curve" smooth="yes"/>
			<point x="200" y="192" type="line" smooth="yes"/>
			<point x="200" y="188"/>
			<point x="200" y="184"/>
		</contour>
	</outline>
</glyph>
<glyph name="P" format="2">
	<advance width="594"/>
	<unicode hex="0050"/>
	<unicode hex="0070"/>
	<outline>
		<contour>
			<point x="115" y="552" type="line"/>
			<point x="115" y="321" type="line"/>
			<point x="215" y="439" type="line"/>
			<point x="215" y="670" type="line"/>
		</contour>
		<contour>
			<point x="115" y="190" type="line"/>
			<point x="115" y="0" type="line"/>
			<point x="215" y="0" type="line"/>
			<point x="215" y="308" type="line"/>
		</contour>
		<contour>
			<point x="448" y="610" type="line"/>
			<point x="546" y="715" type="line"/>
			<point x="552" y="696"/>
			<point x="554" y="674"/>
			<point x="554" y="649" type="curve" smooth="yes"/>
			<point x="554" y="472" type="line" smooth="yes"/>
			<point x="554" y="367"/>
			<point x="495" y="309"/>
			<point x="399" y="309" type="curve" smooth="yes"/>
			<point x="317" y="309" type="line"/>
			<point x="403" y="405" type="line" smooth="yes"/>
			<point x="438" y="444"/>
			<point x="448" y="460"/>
			<point x="448" y="502" type="curve" smooth="yes"/>
		</contour>
	</outline>
</glyph>
<glyph name="Q" format="2">
	<advance width="604"/>
	<unicode hex="0051"/>
	<unicode hex="0071"/>
	<outline>
		<contour>
			<point x="439" y="613" type="line"/>
			<point x="439" y="184" type="line" smooth="yes"/>
			<point x="439" y="150"/>
			<point x="428" y="126"/>
			<point x="403" y="95" type="curve" smooth="yes"/>
			<point x="286" y="-52" type="line"/>
			<point x="306" y="-105" type="line"/>
			<point x="413" y="-105" type="line"/>
			<point x="365" y="4" type="line"/>
			<point x="335" y="-9" type="line"/>
			<point x="481" y="-2"/>
			<point x="539" y="55"/>
			<point x="539" y="182" type="curve" smooth="yes"/>
			<point x="539" y="618" type="line" smooth="yes"/>
			<point x="539" y="655"/>
			<point x="534" y="687"/>
			<point x="523" y="712" type="curve"/>
		</contour>
		<contour>
			<point x="200" y="180" type="curve"/>
			<point x="122" y="92" type="line"/>
			<point x="108" y="108"/>
			<point x="100" y="129"/>
			<point x="100" y="153" type="curve" smooth="yes"/>
			<point x="100" y="491" type="line" smooth="yes"/>
			<point x="100" y="514"/>
			<point x="103" y="529"/>
			<point x="112" y="539" type="curve" smooth="yes"/>
			<point x="212" y="656" type="line"/>
			<point x="203" y="646"/>
			<point x="200" y="631"/>
			<point x="200" y="608" type="curve" smooth="yes"/>
			<point x="200" y="192" type="line" smooth="yes"/>
			<point x="200" y="188"/>
			<point x="200" y="184"/>
		</contour>
	</outline>
</glyph>
<glyph name="R" format="2">
	<advance width="624"/>
	<unicode hex="0052"/>
	<unicode hex="0072"/>
	<outline>
		<contour>
			<point x="115" y="552" type="line"/>
			<point x="115" y="321" type="line"/>
			<point x="215" y="439" type="line"/>
			<point x="215" y="670" type="line"/>
		</contour>
		<contour>
			<point x="115" y="197" type="line"/>
			<point x="115" y="0" type="line"/>
			<point x="215" y="0" type="line"/>
			<point x="215" y="315" type="line"/>
		</contour>
		<contour>
			<point x="454" y="252" type="line"/>
			<point x="454" y="0" type="line"/>
			<point x="554" y="0" type="line"/>
			<point x="554" y="278" type="line" smooth="yes"/>
			<point x="554" y="298"/>
			<point x="549" y="317"/>
			<point x="540" y="333" type="curve"/>
		</contour>
		<contour>
			<point x="448" y="610" type="line"/>
			<point x="546" y="715" type="line"/>
			<point x="552" y="696"/>
			<point x="554" y="674"/>
			<point x="554" y="649" type="curve" smooth="yes"/>
			<point x="554" y="498" type="line" smooth="yes"/>
			<point x="554" y="436"/>
			<point x="518" y="398"/>
			<point x="462" y="386" type="curve"/>
			<point x="377" y="388" type="line"/>
			<point x="418" y="433" type="line" smooth="yes"/>
			<point x="436" y="453"/>
			<point x="448" y="471"/>
			<point x="448" y="502" type="curve" smooth="yes"/>
		</contour>
	</outline>
</glyph>
<glyph name="S" format="2">
	<advance width="604"/>
	<unicode hex="0053"/>
	<unicode hex="0073"/>
	<outline>
		<contour>
			<point x="424" y="267" type="line"/>
			<point x="424" y="189" type="line" smooth="yes"/>
			<point x="424" y="148"/>
			<point x="414" y="117"/>
			<point x="390" y="90" type="curve" smooth="yes"/>
			<point x="302" y="-10" type="line"/>
			<point x="472" y="-10"/>
			<point x="539" y="46"/>
			<point x="539" y="182" type="curve" smooth="yes"/>
			<point x="539" y="370" type="line" smooth="yes"/>
			<point x="539" y="389"/>
			<point x="536" y="398"/>
			<point x="534" y="405" type="curve"/>
		</contour>
		<contour>
			<point x="420" y="594" type="line"/>
			<point x="420" y="561" type="line"/>
			<point x="535" y="561" type="line"/>
			<point x="535" y="618" type="line" smooth="yes"/>
			<point x="535" y="648"/>
			<point x="532" y="674"/>
			<point x="525" y="697" type="curve"/>
		</contour>
		<contour>
			<point x="200" y="503" type="line"/>
			<point x="122" y="412" type="line"/>
			<point x="108" y="428"/>
			<point x="100" y="449"/>
			<point x="100" y="481" type="curve" smooth="yes"/>
			<point x="100" y="506"/>
			<point x="103" y="529"/>
			<point x="112" y="539" type="curve" smooth="yes"/>
			<point x="212" y="656" type="line"/>
			<point x="203" y="646"/>
			<point x="200" y="631"/>
			<point x="200" y="608" type="curve" smooth="yes"/>
		</contour>
		<contour>
			<point x="203" y="162" type="curve"/>
			<point x="122" y="72" type="line"/>
			<point x="108" y="88"/>
			<point x="85" y="115"/>
			<point x="100" y="133" type="curve" smooth="yes"/>
			<point x="200" y="252" type="line"/>
			<point x="200" y="192" type="line" smooth="yes"/>
			<point x="200" y="180"/>
			<point x="201" y="170"/>
		</contour>
	</outline>
</glyph>
<glyph name="T" format="2">
	<advance width="469"/>
	<unicode hex="0054"/>
	<unicode hex="0074"/>
	<outline>
		<contour>
			<point x="202" y="552" type="line"/>
			<point x="202" y="0" type="line"/>
			<point x="302" y="0" type="line"/>
			<point x="302" y="670" type="line"/>
		</contour>
		<contour>
			<point x="359" y="670" type="line"/>
			<point x="469" y="670" type="line"/>
			<point x="469" y="800" type="line"/>
		</contour>
	</outline>
</glyph>
<glyph name="U" format="2">
	<advance width="606"/>
	<unicode hex="0055"/>
	<unicode hex="0075"/>
	<anchor x="303" y="800" name="top"/>
	<outline>
		<contour>
			<point x="435" y="686" type="line"/>
			<point x="435" y="165" type="line" smooth="yes"/>
			<point x="435" y="105"/>
			<point x="417" y="51"/>
			<point x="348" y="-8" type="curve"/>
			<point x="482" y="5"/>
			<point x="535" y="76"/>
			<point x="535" y="200" type="curve" smooth="yes"/>
			<point x="535" y="800" type="line"/>
		</contour>
		<contour>
			<point x="206" y="180" type="curve"/>
			<point x="128" y="92" type="line"/>
			<point x="114" y="108"/>
			<point x="106" y="129"/>
			<point x="106" y="153" type="curve" smooth="yes"/>
			<point x="106" y="686" type="line"/>
			<point x="206" y="800" type="line"/>
			<point x="206" y="192" type="line" smooth="yes"/>
			<point x="206" y="188"/>
			<point x="206" y="184"/>
		</contour>
	</outline>
</glyph>
<glyph name="V" format="2">
	<advance width="510"/>
	<unicode hex="0056"/>
	<unicode hex="0076"/>
	<outline>
		<contour>
			<point x="391" y="675" type="line"/>
			<point x="235" y="73" type="line"/>
			<point x="307" y="0" type="line"/>
			<point x="516" y="800" type="line"/>
		</contour>
		<contour>
			<point x="50" y="719" type="line"/>
			<point x="211" y="107" type="line"/>
			<point x="255" y="271" type="line"/>
			<point x="122" y="800" type="line"/>
		</contour>
	</outline>
</glyph>
<glyph name="W" format="2">
	<advance width="742"/>
	<unicode hex="0057"/>
	<unicode hex="0077"/>
	<outline>
		<contour>
			<point x="620" y="697" type="line"/>
			<point x="520" y="69" type="line"/>
			<point x="581" y="0" type="line"/>
			<point x="730" y="800" type="line"/>
		</contour>
		<contour>
			<point x="348" y="697" type="line"/>
			<point x="491" y="114" type="line"/>
			<point x="529" y="333" type="line"/>
			<point x="429" y="800" type="line"/>
		</contour>
		<contour>
			<point x="196" y="70" type="line"/>
			<point x="265" y="0" type="line"/>
			<point x="372" y="465" type="line"/>
			<point x="358" y="520" type="line"/>
			<point x="255" y="355" type="line"/>
		</contour>
		<contour>
			<point x="64" y="698" type="line"/>
			<point x="173" y="114" type="line"/>
			<point x="215" y="333" type="line"/>
			<point x="142" y="800" type="line"/>
		</contour>
	</outline>
</glyph>
<glyph name="X" format="2">
	<advance width="525"/>
	<unicode hex="0058"/>
	<unicode hex="0078"/>
	<outline>
		<contour>
			<point x="337" y="679" type="line"/>
			<point x="225" y="413" type="line"/>
			<point x="398" y="0" type="line"/>
			<point x="515" y="0" type="line"/>
			<point x="340" y="412" type="line"/>
			<point x="505" y="800" type="line"/>
		</contour>
		<contour>
			<point x="51" y="0" type="line"/>
			<point x="165" y="0" type="line"/>
			<point x="262" y="228" type="line"/>
			<point x="121" y="163" type="line"/>
		</contour>
		<contour>
			<point x="204" y="454" type="line"/>
			<point x="263" y="592" type="line"/>
			<point x="175" y="800" type="line"/>
			<point x="97" y="705" type="line"/>
		</contour>
	</outline>
</glyph>
<glyph name="Y" format="2">
	<advance width="486"/>
	<unicode hex="0059"/>
	<unicode hex="0079"/>
	<anchor x="243" y="800" name="top"/>
	<outline>
		<contour>
			<point x="334" y="680" type="line"/>
			<point x="211" y="391" type="line"/>
			<point x="211" y="0" type="line"/>
			<point x="310" y="0" type="line"/>
			<point x="310" y="391" type="line"/>
			<point x="499" y="800" type="line"/>
		</contour>
		<contour>
			<point x="193" y="439" type="line"/>
			<point x="243" y="553" type="line"/>
			<point x="139" y="800" type="line"/>
			<point x="71" y="693" type="line"/>
		</contour>
	</outline>
</glyph>
<glyph name="Z" format="2">
	<advance width="492"/>
	<unicode hex="005A"/>
	<unicode hex="007A"/>
	<outline>
		<contour>
			<point x="76" y="14" type="line"/>
			<point x="195" y="130" type="line"/>
			<point x="455" y="670" type="line"/>
			<point x="455" y="800" type="line"/>
			<point x="342" y="671" type="line"/>
			<point x="76" y="126" type="line"/>
		</contour>
		<contour>
			<point x="312" y="0" type="line"/>
			<point x="455" y="0" type="line"/>
			<point x="455" y="130" type="line"/>
		</contour>
	</outline>
</glyph>
<glyph name="bracketleft" format="2">
	<advance width="363"/>
	<unicode hex="005B"/>
	<outline>
		<contour>
			<point x="85" y="564" type="line"/>
			<point x="85" y="0" type="line"/>
			<point x="185" y="119" type="line"/>
			<point x="185" y="682" type="line"/>
		</contour>
		<contour>
			<point x="254" y="682" type="line"/>
			<point x="363" y="682" type="line"/>
			<point x="363" y="800" type="line"/>
		</contour>
		<contour>
			<point x="254" y="0" type="line"/>
			<point x="363" y="0" type="line"/>
			<point x="363" y="118" type="line"/>
		</contour>
	</outline>
</glyph>
<glyph name="backslash" format="2">
	<advance width="395"/>
	<unicode hex="005C"/>
	<outline>
		<contour>
			<point x="95" y="719" type="line"/>
			<point x="302" y="0" type="line"/>
			<point x="391" y="0" type="line"/>
			<point x="167" y="800" type="line"/>
		</contour>
	</outline>
</glyph>
<glyph name="bracketright" format="2">
	<advance width="363"/>
	<unicode hex="005D"/>
	<outline>
		<contour>
			<point x="213" y="682" type="line"/>
			<point x="213" y="117" type="line"/>
			<point x="117" y="0" type="line"/>
			<point x="313" y="0" type="line"/>
			<point x="313" y="800" type="line"/>
		</contour>
	</outline>
</glyph>
<glyph name="asciicircum" format="2">
	<advance width="350"/>
	<unicode hex="005E"/>
	<outline>
		<contour>
			<point x="175" y="477" type="line"/>
			<point x="79" y="416" type="line"/>
			<point x="73" y="400" type="line"/>
			<point x="138" y="400" type="line"/>
		</contour>
		<contour>
			<point x="249" y="524" type="line"/>
			<point x="194" y="471" type="line"/>
			<point x="228" y="400" type="line"/>
			<point x="295" y="400" type="line"/>
		</contour>
	</outline>
</glyph>
<glyph name="grave" format="2">
	<advance width="210"/>
	<unicode hex="0060"/>
	<anchor x="97" y="800" name="_top"/>
	<outline>
		<contour>
			<point x="125" y="924" type="line"/>
			<point x="60" y="800" type="line"/>
			<point x="90" y="707" type="line"/>
			<point x="141" y="800" type="line"/>
		</contour>
	</outline>
</glyph>
<glyph name="bar" format="2">
	<advance width="255"/>
	<unicode hex="007C"/>
	<outline>
		<contour>
			<point x="115" y="719" type="line"/>
			<point x="115" y="0" type="line"/>
			<point x="175" y="0" type="line"/>
			<point x="175" y="800" type="line"/>
		</contour>
	</outline>
</glyph>
<glyph name="exclamdown" format="2">
	<advance width="329"/>
	<unicode hex="00A1"/>
	<outline>
		<contour>
			<point x="121" y="636" type="line"/>
			<point x="242" y="636" type="line"/>
			<point x="242" y="800" type="line"/>
			<point x="121" y="670" type="line"/>
		</contour>
		<contour>
			<point x="144" y="0" type="line"/>
			<point x="249" y="0" type="line"/>
			<point x="212" y="550" type="line"/>
			<point x="144" y="451" type="line"/>
		</contour>
	</outline>
</glyph>
<glyph name="sterling" format="2">
	<advance width="591"/>
	<unicode hex="00A3"/>
	<outline>
		<contour>
			<point x="137" y="166" type="line"/>
			<point x="137" y="12" type="line"/>
			<point x="237" y="130" type="line"/>
			<point x="237" y="254" type="line"/>
		</contour>
		<contour>
			<point x="416" y="0" type="line"/>
			<point x="526" y="0" type="line"/>
			<point x="526" y="130" type="line"/>
		</contour>
		<contour>
			<point x="374" y="253" type="line"/>
			<point x="484" y="253" type="line"/>
			<point x="484" y="383" type="line"/>
		</contour>
		<contour>
			<point x="237" y="384" type="line"/>
			<point x="137" y="293" type="line"/>
			<point x="137" y="491" type="line" smooth="yes"/>
			<point x="137" y="514"/>
			<point x="140" y="529"/>
			<point x="149" y="539" type="curve" smooth="yes"/>
			<point x="249" y="656" type="line"/>
			<point x="240" y="646"/>
			<point x="237" y="631"/>
			<point x="237" y="608" type="curve" smooth="yes"/>
		</contour>
		<contour>
			<point x="401" y="608" type="line"/>
			<point x="401" y="464" type="line"/>
			<point x="536" y="464" type="line"/>
			<point x="536" y="618" type="line" smooth="yes"/>
			<point x="536" y="667"/>
			<point x="529" y="708"/>
			<point x="510" y="738" type="curve"/>
		</contour>
	</outline>
</glyph>
<glyph name="yen" format="2">
	<advance width="486"/>
	<unicode hex="00A5"/>
	<anchor x="243" y="800" name="top"/>
	<outline>
		<contour>
			<point x="212" y="343" type="line"/>
			<point x="339" y="455" type="line"/>
			<point x="499" y="800" type="line"/>
			<point x="334" y="680" type="line"/>
			<point x="212" y="384" type="line"/>
		</contour>
		<contour>
			<point x="185" y="455" type="line"/>
			<point x="200" y="455" type="line"/>
			<point x="243" y="553" type="line"/>
			<point x="139" y="800" type="line"/>
			<point x="71" y="693" type="line"/>
		</contour>
		<contour>
			<point x="211" y="265" type="line"/>
			<point x="211" y="185" type="line"/>
			<point x="310" y="255" type="line"/>
			<point x="310" y="337" type="line"/>
		</contour>
		<contour>
			<point x="310" y="137" type="line"/>
			<point x="211" y="65" type="line"/>
			<point x="211" y="0" type="line"/>
			<point x="310" y="0" type="line"/>
		</contour>
		<component base="equal" xOffset="12" yOffset="-80"/>
	</outline>
</glyph>
<glyph name="brokenbar" format="2">
	<advance width="255"/>
	<unicode hex="00A6"/>
	<outline>
		<contour>
			<point x="115" y="480" type="line"/>
			<point x="175" y="480" type="line"/>
			<point x="175" y="800" type="line"/>
			<point x="115" y="719" type="line"/>
		</contour>
		<contour>
			<point x="115" y="0" type="line"/>
			<point x="175" y="0" type="line"/>
			<point x="175" y="320" type="line"/>
			<point x="115" y="239" type="line"/>
		</contour>
	</outline>
</glyph>
<glyph name="section" format="2">
	<advance width="604"/>
	<unicode hex="00A7"/>
	<outline>
		<contour>
			<point x="424" y="15" type="line"/>
			<point x="424" y="-10" type="line" smooth="yes"/>
			<point x="424" y="-51"/>
			<point x="414" y="-82"/>
			<point x="390" y="-109" type="curve" smooth="yes"/>
			<point x="302" y="-209" type="line"/>
			<point x="472" y="-209"/>
			<point x="539" y="-153"/>
			<point x="539" y="-17" type="curve" smooth="yes"/>
			<point x="539" y="121" type="line" smooth="yes"/>
			<point x="539" y="137"/>
			<point x="537" y="146"/>
			<point x="534" y="153" type="curve"/>
		</contour>
		<contour>
			<point x="420" y="591" type="line"/>
			<point x="420" y="575" type="line"/>
			<point x="535" y="575" type="line"/>
			<point x="535" y="615" type="line" smooth="yes"/>
			<point x="535" y="645"/>
			<point x="532" y="671"/>
			<point x="525" y="694" type="curve"/>
		</contour>
		<contour>
			<point x="207" y="-47" type="curve"/>
			<point x="120" y="-128" type="line"/>
			<point x="103" y="-112"/>
			<point x="89" y="-65"/>
			<point x="103" y="-52" type="curve" smooth="yes"/>
			<point x="200" y="43" type="line"/>
			<point x="200" y="-11" type="line" smooth="yes"/>
			<point x="200" y="-23"/>
			<point x="203" y="-39"/>
		</contour>
		<contour>
			<point x="207" y="536" type="curve"/>
			<point x="138" y="459" type="line"/>
			<point x="97" y="494"/>
			<point x="100" y="524"/>
			<point x="108" y="534" type="curve" smooth="yes"/>
			<point x="212" y="653" type="line"/>
			<point x="203" y="643"/>
			<point x="200" y="628"/>
			<point x="200" y="605" type="curve" smooth="yes"/>
			<point x="200" y="571" type="line" smooth="yes"/>
			<point x="200" y="549"/>
			<point x="203" y="541"/>
		</contour>
		<contour>
			<point x="534" y="461" type="curve"/>
			<point x="424" y="323" type="line"/>
			<point x="424" y="261"/>
			<point x="424" y="235"/>
			<point x="378" y="198" type="curve" smooth="yes"/>
			<point x="306" y="140" type="line"/>
			<point x="475" y="140"/>
			<point x="539" y="182"/>
			<point x="539" y="274" type="curve" smooth="yes"/>
			<point x="539" y="424" type="line" smooth="yes"/>
			<point x="539" y="440"/>
			<point x="537" y="454"/>
		</contour>
		<contour>
			<point x="206" y="255" type="curve"/>
			<point x="125" y="167" type="line"/>
			<point x="96" y="182"/>
			<point x="94" y="237"/>
			<point x="103" y="246" type="curve" smooth="yes"/>
			<point x="212" y="360" type="line"/>
			<point x="203" y="350"/>
			<point x="200" y="335"/>
			<point x="200" y="312" type="curve" smooth="yes"/>
			<point x="200" y="292" type="line" smooth="yes"/>
			<point x="200" y="278"/>
			<point x="202" y="262"/>
		</contour>
	</outline>
</glyph>
<glyph name="guillemetleft" format="2">
	<advance width="580"/>
	<unicode hex="00AB"/>
	<outline>
		<contour>
			<point x="340" y="375" type="line"/>
			<point x="529" y="167" type="line"/>
			<point x="548" y="180" type="line"/>
			<point x="418" y="416" type="line"/>
			<point x="548" y="652" type="line"/>
			<point x="545" y="654" type="line"/>
		</contour>
		<contour>
			<point x="110" y="375" type="line"/>
			<point x="299" y="167" type="line"/>
			<point x="318" y="180" type="line"/>
			<point x="188" y="416" type="line"/>
			<point x="318" y="652" type="line"/>
			<point x="315" y="654" type="line"/>
		</contour>
	</outline>
</glyph>
<glyph name="degree" format="2">
	<advance width="338"/>
	<unicode hex="00B0"/>
	<outline>
		<contour>
			<point x="251" y="655" type="line"/>
			<point x="251" y="634" type="line" smooth="yes"/>
			<point x="251" y="576"/>
			<point x="219" y="505"/>
			<point x="168" y="470" type="curve"/>
			<point x="279" y="468"/>
			<point x="328" y="517"/>
			<point x="328" y="635" type="curve" smooth="yes"/>
			<point x="328" y="684"/>
			<point x="322" y="712"/>
			<point x="314" y="732" type="curve"/>
		</contour>
		<contour>
			<point x="116" y="601" type="curve"/>
			<point x="55" y="534" type="line"/>
			<point x="44" y="547"/>
			<point x="38" y="564"/>
			<point x="38" y="580" type="curve" smooth="yes"/>
			<point x="38" y="592"/>
			<point x="40" y="601"/>
			<point x="47" y="609" type="curve" smooth="yes"/>
			<point x="129" y="701" type="line"/>
			<point x="117" y="688"/>
			<point x="112" y="666"/>
			<point x="112" y="638" type="curve" smooth="yes"/>
			<point x="112" y="622"/>
			<point x="114" y="607"/>
		</contour>
	</outline>
</glyph>
<glyph name="acute" format="2">
	<advance width="214"/>
	<unicode hex="00B4"/>
	<anchor x="67" y="800" name="_top"/>
	<outline>
		<contour>
			<point x="154" y="924" type="line"/>
			<point x="51" y="786" type="line"/>
			<point x="37" y="707" type="line"/>
			<point x="109" y="800" type="line"/>
		</contour>
	</outline>
</glyph>
<glyph name="paragraph" format="2">
	<advance width="655"/>
	<unicode hex="00B6"/>
	<outline>
		<contour>
			<point x="269" y="682" type="line"/>
			<point x="269" y="0" type="line"/>
			<point x="369" y="0" type="line"/>
			<point x="369" y="800" type="line"/>
		</contour>
		<component base="I" xOffset="360"/>
	</outline>
</glyph>
<glyph name="cedilla" format="2">
	<advance width="600"/>
	<unicode hex="00B8"/>
	<outline>
		<contour>
			<point x="350" y="-8" type="line"/>
			<point x="232" y="-154" type="line"/>
			<point x="340" y="-154" type="line"/>
		</contour>
	</outline>
</glyph>
<glyph name="guillemetright" format="2">
	<advance width="580"/>
	<unicode hex="00BB"/>
	<outline>
		<contour>
			<point x="548" y="427" type="line"/>
			<point x="314" y="678" type="line"/>
			<point x="314" y="645" type="line"/>
			<point x="471" y="392" type="line"/>
			<point x="309" y="155" type="line"/>
			<point x="312" y="153" type="line"/>
			<point x="548" y="405" type="line"/>
		</contour>
		<contour>
			<point x="318" y="427" type="line"/>
			<point x="84" y="678" type="line"/>
			<point x="84" y="645" type="line"/>
			<point x="241" y="392" type="line"/>
			<point x="79" y="155" type="line"/>
			<point x="82" y="153" type="line"/>
			<point x="318" y="405" type="line"/>
		</contour>
	</outline>
</glyph>
<glyph name="questiondown" format="2">
	<advance width="554"/>
	<unicode hex="00BF"/>
	<outline>
		<contour>
			<point x="236" y="636" type="line"/>
			<point x="376" y="636" type="line"/>
			<point x="376" y="800" type="line"/>
		</contour>
		<contour>
			<point x="513" y="251" type="line"/>
			<point x="413" y="152" type="line"/>
			<point x="413" y="71"/>
			<point x="373" y="34"/>
			<point x="309" y="-9" type="curve"/>
			<point x="455" y="-2"/>
			<point x="513" y="55"/>
			<point x="513" y="182" type="curve" smooth="yes"/>
		</contour>
		<contour>
			<point x="88" y="224" type="curve" smooth="yes"/>
			<point x="372" y="552" type="line"/>
			<point x="372" y="498" type="line" smooth="yes"/>
			<point x="372" y="458"/>
			<point x="360" y="424"/>
			<point x="324" y="396" type="curve" smooth="yes"/>
			<point x="218" y="312" type="line" smooth="yes"/>
			<point x="188" y="288"/>
			<point x="178" y="260"/>
			<point x="178" y="219" type="curve" smooth="yes"/>
			<point x="178" y="182" type="line" smooth="yes"/>
			<point x="178" y="178"/>
			<point x="178" y="174"/>
			<point x="178" y="170" type="curve"/>
			<point x="98" y="81" type="line"/>
			<point x="84" y="97"/>
			<point x="76" y="140"/>
			<point x="76" y="164" type="curve" smooth="yes"/>
			<point x="76" y="195"/>
			<point x="79" y="213"/>
		</contour>
	</outline>
</glyph>
<glyph name="Adieresis" format="2">
	<advance width="510"/>
	<unicode hex="00C4"/>
	<unicode hex="00E4"/>
	<anchor x="255" y="800" name="top"/>
	<outline>
		<contour>
			<point x="244" y="687" type="line"/>
			<point x="353" y="259" type="line"/>
			<point x="264" y="151" type="line"/>
			<point x="353" y="151" type="line"/>
			<point x="379" y="134" type="line"/>
			<point x="419" y="0" type="line"/>
			<point x="516" y="0" type="line"/>
			<point x="317" y="800" type="line"/>
		</contour>
		<contour>
			<point x="44" y="81" type="line"/>
			<point x="25" y="0" type="line"/>
			<point x="122" y="0" type="line"/>
			<point x="159" y="150" type="line"/>
		</contour>
		<contour>
			<point x="139" y="463" type="line"/>
			<point x="72" y="193" type="line"/>
			<point x="188" y="267" type="line"/>
			<point x="255" y="537" type="line"/>
		</contour>
		<contour>
			<point x="317" y="800" type="line"/>
			<point x="382" y="800" type="line"/>
			<point x="382" y="894" type="line"/>
		</contour>
		<contour>
			<point x="164" y="800" type="line"/>
			<point x="193" y="800" type="line"/>
			<point x="169" y="703" type="line"/>
			<point x="232" y="800" type="line"/>
			<point x="232" y="894" type="line"/>
			<point x="164" y="800" type="line"/>
		</contour>
	</outline>
</glyph>
<glyph name="Aring" format="2">
	<advance width="510"/>
	<unicode hex="00C5"/>
	<unicode hex="00E5"/>
	<outline>
		<contour>
			<point x="315" y="816" type="line"/>
			<point x="315" y="809" type="line" smooth="yes"/>
			<point x="315" y="764"/>
			<point x="290" y="717"/>
			<point x="245" y="690" type="curve"/>
			<point x="353" y="259" type="line"/>
			<point x="264" y="151" type="line"/>
			<point x="353" y="151" type="line"/>
			<point x="379" y="134" type="line"/>
			<point x="419" y="0" type="line"/>
			<point x="516" y="0" type="line"/>
			<point x="340" y="712" type="line"/>
			<point x="365" y="730"/>
			<point x="376" y="762"/>
			<point x="376" y="809" type="curve" smooth="yes"/>
			<point x="376" y="845"/>
			<point x="371" y="861"/>
			<point x="365" y="877" type="curve"/>
		</contour>
		<contour>
			<point x="216" y="781" type="curve"/>
			<point x="170" y="729" type="line"/>
			<point x="159" y="740"/>
			<point x="153" y="752"/>
			<point x="153" y="764" type="curve" smooth="yes"/>
			<point x="153" y="774"/>
			<point x="154" y="781"/>
			<point x="160" y="787" type="curve" smooth="yes"/>
			<point x="222" y="848" type="line"/>
			<point x="213" y="837"/>
			<point x="211" y="820"/>
			<point x="211" y="809" type="curve" smooth="yes"/>
			<point x="211" y="798"/>
			<point x="213" y="787"/>
		</contour>
		<contour>
			<point x="44" y="81" type="line"/>
			<point x="25" y="0" type="line"/>
			<point x="122" y="0" type="line"/>
			<point x="159" y="150" type="line"/>
		</contour>
		<contour>
			<point x="140" y="468" type="line"/>
			<point x="73" y="198" type="line"/>
			<point x="188" y="267" type="line"/>
			<point x="255" y="537" type="line"/>
		</contour>
	</outline>
</glyph>
<glyph name="AE" format="2">
	<advance width="789"/>
	<unicode hex="00C6"/>
	<unicode hex="00E6"/>
	<outline>
		<contour>
			<point x="54" y="81" type="line"/>
			<point x="24" y="0" type="line"/>
			<point x="121" y="0" type="line"/>
			<point x="169" y="150" type="line"/>
		</contour>
		<contour>
			<point x="226" y="616" type="line"/>
			<point x="91" y="198" type="line"/>
			<point x="206" y="267" type="line"/>
			<point x="341" y="685" type="line"/>
		</contour>
		<contour>
			<point x="380" y="150" type="line"/>
			<point x="458" y="270" type="line"/>
			<point x="473" y="334" type="line"/>
			<point x="316" y="151" type="line"/>
			<point x="354" y="151" type="line"/>
		</contour>
		<component base="E" xOffset="261"/>
	</outline>
</glyph>
<glyph name="Ccedilla" format="2">
	<advance width="595"/>
	<unicode hex="00C7"/>
	<unicode hex="00E7"/>
	<outline>
		<contour>
			<point x="350" y="-8" type="line"/>
			<point x="232" y="-154" type="line"/>
			<point x="340" y="-154" type="line"/>
		</contour>
		<component base="C"/>
	</outline>
</glyph>
<glyph name="Eacute" format="2">
	<advance width="528"/>
	<unicode hex="00C9"/>
	<unicode hex="00E9"/>
	<outline>
		<contour>
			<point x="359" y="924" type="line"/>
			<point x="256" y="786" type="line"/>
			<point x="242" y="707" type="line"/>
			<point x="314" y="800" type="line"/>
		</contour>
		<component base="E"/>
	</outline>
</glyph>
<glyph name="Ecircumflex" format="2">
	<advance width="528"/>
	<unicode hex="00CA"/>
	<unicode hex="00EA"/>
	<anchor x="286" y="800" name="top"/>
	<outline>
		<contour>
			<point x="115" y="552" type="line"/>
			<point x="115" y="351" type="line"/>
			<point x="215" y="469" type="line"/>
			<point x="215" y="670" type="line"/>
		</contour>
		<contour>
			<point x="115" y="221" type="line"/>
			<point x="115" y="12" type="line"/>
			<point x="215" y="130" type="line"/>
			<point x="215" y="339" type="line"/>
		</contour>
		<contour>
			<point x="386" y="670" type="line"/>
			<point x="493" y="670" type="line"/>
			<point x="493" y="800" type="line"/>
		</contour>
		<contour>
			<point x="312" y="339" type="line"/>
			<point x="422" y="339" type="line"/>
			<point x="422" y="469" type="line"/>
		</contour>
		<contour>
			<point x="383" y="0" type="line"/>
			<point x="493" y="0" type="line"/>
			<point x="493" y="130" type="line"/>
		</contour>
		<contour>
			<point x="285" y="877" type="line"/>
			<point x="187" y="796" type="line"/>
			<point x="161" y="734" type="line"/>
			<point x="248" y="800" type="line"/>
		</contour>
		<contour>
			<point x="359" y="924" type="line"/>
			<point x="304" y="871" type="line"/>
			<point x="362" y="748" type="line"/>
			<point x="405" y="800" type="line"/>
		</contour>
	</outline>
</glyph>
<glyph name="Edieresis" format="2">
	<advance width="528"/>
	<unicode hex="00CB"/>
	<unicode hex="00EB"/>
	<anchor x="286" y="800" name="top"/>
	<outline>
		<contour>
			<point x="115" y="558" type="line"/>
			<point x="115" y="357" type="line"/>
			<point x="215" y="469" type="line"/>
			<point x="215" y="670" type="line"/>
		</contour>
		<contour>
			<point x="115" y="227" type="line"/>
			<point x="115" y="18" type="line"/>
			<point x="215" y="130" type="line"/>
			<point x="215" y="339" type="line"/>
		</contour>
		<contour>
			<point x="374" y="670" type="line"/>
			<point x="493" y="670" type="line"/>
			<point x="493" y="800" type="line"/>
		</contour>
		<contour>
			<point x="302" y="339" type="line"/>
			<point x="422" y="339" type="line"/>
			<point x="422" y="469" type="line"/>
		</contour>
		<contour>
			<point x="373" y="0" type="line"/>
			<point x="493" y="0" type="line"/>
			<point x="493" y="130" type="line"/>
		</contour>
		<contour>
			<point x="345" y="804" type="line"/>
			<point x="345" y="721" type="line"/>
			<point x="418" y="800" type="line"/>
			<point x="418" y="894" type="line"/>
		</contour>
		<contour>
			<point x="185" y="804" type="line"/>
			<point x="185" y="721" type="line"/>
			<point x="258" y="800" type="line"/>
			<point x="258" y="894" type="line"/>
		</contour>
	</outline>
</glyph>
<glyph name="Igrave" format="2">
	<advance width="295"/>
	<unicode hex="00CC"/>
	<unicode hex="00EC"/>
	<anchor x="152" y="800" name="top"/>
	<outline>
		<contour>
			<point x="115" y="0" type="line"/>
			<point x="215" y="0" type="line"/>
			<point x="215" y="800" type="line"/>
			<point x="199" y="924" type="line"/>
			<point x="115" y="722" type="line"/>
		</contour>
	</outline>
</glyph>
<glyph name="Icircumflex" format="2">
	<advance width="295"/>
	<unicode hex="00CE"/>
	<unicode hex="00EE"/>
	<anchor x="152" y="800" name="top"/>
	<outline>
		<contour>
			<point x="152" y="877" type="line"/>
			<point x="58" y="800" type="line"/>
			<point x="80" y="800" type="line"/>
			<point x="80" y="770" type="line"/>
			<point x="115" y="800" type="line"/>
		</contour>
		<contour>
			<point x="115" y="0" type="line"/>
			<point x="215" y="0" type="line"/>
			<point x="215" y="800" type="line"/>
			<point x="272" y="800" type="line"/>
			<point x="226" y="924" type="line"/>
			<point x="171" y="871" type="line"/>
			<point x="209" y="792" type="line"/>
			<point x="115" y="708" type="line"/>
		</contour>
	</outline>
</glyph>
<glyph name="Ograve" format="2">
	<advance width="604"/>
	<unicode hex="00D2"/>
	<unicode hex="00F2"/>
	<anchor x="302" y="800" name="top"/>
	<outline>
		<contour>
			<point x="439" y="613" type="line"/>
			<point x="439" y="182" type="line" smooth="yes"/>
			<point x="439" y="89"/>
			<point x="399" y="34"/>
			<point x="335" y="-9" type="curve"/>
			<point x="481" y="-2"/>
			<point x="539" y="55"/>
			<point x="539" y="182" type="curve" smooth="yes"/>
			<point x="539" y="618" type="line" smooth="yes"/>
			<point x="539" y="655"/>
			<point x="534" y="687"/>
			<point x="523" y="712" type="curve"/>
		</contour>
		<contour>
			<point x="200" y="180" type="curve"/>
			<point x="122" y="92" type="line"/>
			<point x="108" y="108"/>
			<point x="100" y="129"/>
			<point x="100" y="153" type="curve" smooth="yes"/>
			<point x="100" y="491" type="line" smooth="yes"/>
			<point x="100" y="514"/>
			<point x="103" y="529"/>
			<point x="112" y="539" type="curve" smooth="yes"/>
			<point x="212" y="656" type="line"/>
			<point x="203" y="646"/>
			<point x="200" y="631"/>
			<point x="200" y="608" type="curve" smooth="yes"/>
			<point x="200" y="192" type="line" smooth="yes"/>
			<point x="200" y="188"/>
			<point x="200" y="184"/>
		</contour>
		<contour>
			<point x="330" y="924" type="line"/>
			<point x="264" y="821" type="line"/>
			<point x="293" y="737" type="line"/>
			<point x="345" y="809" type="line"/>
		</contour>
	</outline>
</glyph>
<glyph name="Oslash" format="2">
	<advance width="604"/>
	<unicode hex="00D8"/>
	<unicode hex="00F8"/>
	<anchor x="302" y="800" name="top"/>
	<outline>
		<contour>
			<point x="439" y="613" type="line"/>
			<point x="439" y="182" type="line" smooth="yes"/>
			<point x="439" y="89"/>
			<point x="399" y="34"/>
			<point x="335" y="-9" type="curve"/>
			<point x="481" y="-2"/>
			<point x="539" y="55"/>
			<point x="539" y="182" type="curve" smooth="yes"/>
			<point x="539" y="618" type="line" smooth="yes"/>
			<point x="539" y="655"/>
			<point x="534" y="687"/>
			<point x="523" y="712" type="curve"/>
		</contour>
		<contour>
			<point x="279" y="395" type="line"/>
			<point x="404" y="520" type="line"/>
			<point x="276" y="125" type="line"/>
			<point x="238" y="125"/>
			<point x="206" y="135"/>
			<point x="202" y="167" type="curve"/>
		</contour>
		<contour>
			<point x="200" y="276" type="line"/>
			<point x="100" y="158" type="line"/>
			<point x="100" y="491" type="line" smooth="yes"/>
			<point x="100" y="514"/>
			<point x="103" y="529"/>
			<point x="112" y="539" type="curve" smooth="yes"/>
			<point x="212" y="656" type="line"/>
			<point x="203" y="646"/>
			<point x="200" y="631"/>
			<point x="200" y="608" type="curve" smooth="yes"/>
		</contour>
	</outline>
</glyph>
<glyph name="Ugrave" format="2">
	<advance width="600"/>
	<unicode hex="00D9"/>
	<unicode hex="00F9"/>
	<anchor x="303" y="800" name="top"/>
	<outline>
		<contour>
			<point x="435" y="686" type="line"/>
			<point x="435" y="165" type="line" smooth="yes"/>
			<point x="435" y="105"/>
			<point x="417" y="51"/>
			<point x="348" y="-8" type="curve"/>
			<point x="482" y="5"/>
			<point x="535" y="76"/>
			<point x="535" y="200" type="curve" smooth="yes"/>
			<point x="535" y="800" type="line"/>
		</contour>
		<contour>
			<point x="206" y="180" type="curve"/>
			<point x="128" y="92" type="line"/>
			<point x="114" y="108"/>
			<point x="106" y="129"/>
			<point x="106" y="153" type="curve" smooth="yes"/>
			<point x="106" y="686" type="line"/>
			<point x="206" y="800" type="line"/>
			<point x="206" y="192" type="line" smooth="yes"/>
			<point x="206" y="188"/>
			<point x="206" y="184"/>
		</contour>
		<contour>
			<point x="391" y="924" type="line"/>
			<point x="340" y="853" type="line"/>
			<point x="388" y="761" type="line"/>
			<point x="421" y="800" type="line"/>
		</contour>
	</outline>
</glyph>
<glyph name="Ucircumflex" format="2">
	<advance width="606"/>
	<unicode hex="00DB"/>
	<unicode hex="00FB"/>
	<anchor x="303" y="800" name="top"/>
	<outline>
		<contour>
			<point x="435" y="670" type="line"/>
			<point x="435" y="165" type="line" smooth="yes"/>
			<point x="435" y="105"/>
			<point x="417" y="51"/>
			<point x="348" y="-8" type="curve"/>
			<point x="482" y="5"/>
			<point x="535" y="76"/>
			<point x="535" y="200" type="curve" smooth="yes"/>
			<point x="535" y="800" type="line"/>
		</contour>
		<contour>
			<point x="377" y="924" type="line"/>
			<point x="327" y="879" type="line"/>
			<point x="392" y="745" type="line"/>
			<point x="434" y="800" type="line"/>
		</contour>
		<contour>
			<point x="106" y="153" type="curve" smooth="yes"/>
			<point x="106" y="654" type="line"/>
			<point x="303" y="877" type="line"/>
			<point x="206" y="677" type="line"/>
			<point x="206" y="192" type="line"/>
			<point x="206" y="180" type="line"/>
			<point x="128" y="92" type="line"/>
			<point x="114" y="108"/>
			<point x="106" y="129"/>
		</contour>
	</outline>
</glyph>
<glyph name="Udieresis" format="2">
	<advance width="606"/>
	<unicode hex="00DC"/>
	<unicode hex="00FC"/>
	<anchor x="303" y="800" name="top"/>
	<outline>
		<contour>
			<point x="435" y="678" type="line"/>
			<point x="435" y="165" type="line" smooth="yes"/>
			<point x="435" y="105"/>
			<point x="417" y="51"/>
			<point x="348" y="-8" type="curve"/>
			<point x="482" y="5"/>
			<point x="535" y="76"/>
			<point x="535" y="200" type="curve" smooth="yes"/>
			<point x="535" y="800" type="line"/>
		</contour>
		<contour>
			<point x="350" y="790" type="line"/>
			<point x="400" y="790" type="line"/>
			<point x="400" y="770" type="line"/>
			<point x="435" y="800" type="line"/>
			<point x="435" y="894" type="line"/>
		</contour>
		<contour>
			<point x="106" y="153" type="curve" smooth="yes"/>
			<point x="106" y="640" type="line"/>
			<point x="275" y="894" type="line"/>
			<point x="275" y="790" type="line"/>
			<point x="206" y="790" type="line"/>
			<point x="206" y="192" type="line"/>
			<point x="206" y="180" type="line"/>
			<point x="128" y="92" type="line"/>
			<point x="114" y="108"/>
			<point x="106" y="129"/>
		</contour>
	</outline>
</glyph>
<glyph name="OE" format="2">
	<advance width="852"/>
	<unicode hex="0152"/>
	<unicode hex="0153"/>
	<outline>
		<contour>
			<point x="200" y="180" type="curve"/>
			<point x="122" y="92" type="line"/>
			<point x="108" y="108"/>
			<point x="100" y="129"/>
			<point x="100" y="153" type="curve" smooth="yes"/>
			<point x="100" y="491" type="line" smooth="yes"/>
			<point x="100" y="514"/>
			<point x="103" y="529"/>
			<point x="112" y="539" type="curve" smooth="yes"/>
			<point x="212" y="656" type="line"/>
			<point x="203" y="646"/>
			<point x="200" y="631"/>
			<point x="200" y="608" type="curve" smooth="yes"/>
			<point x="200" y="192" type="line" smooth="yes"/>
			<point x="200" y="188"/>
			<point x="200" y="184"/>
		</contour>
		<contour>
			<point x="439" y="552" type="line"/>
			<point x="439" y="351" type="line"/>
			<point x="539" y="469" type="line"/>
			<point x="539" y="670" type="line"/>
		</contour>
		<contour>
			<point x="439" y="221" type="line"/>
			<point x="439" y="177" type="line"/>
			<point x="439" y="12" type="line"/>
			<point x="539" y="130" type="line"/>
			<point x="539" y="339" type="line"/>
		</contour>
		<contour>
			<point x="707" y="670" type="line"/>
			<point x="817" y="670" type="line"/>
			<point x="817" y="800" type="line"/>
		</contour>
		<contour>
			<point x="636" y="339" type="line"/>
			<point x="746" y="339" type="line"/>
			<point x="746" y="469" type="line"/>
		</contour>
		<contour>
			<point x="707" y="0" type="line"/>
			<point x="817" y="0" type="line"/>
			<point x="817" y="130" type="line"/>
		</contour>
	</outline>
</glyph>
<glyph name="Ydieresis" format="2">
	<advance width="486"/>
	<unicode hex="0178"/>
	<unicode hex="00FF"/>
	<anchor x="243" y="800" name="top"/>
	<outline>
		<contour>
			<point x="306" y="612" type="line"/>
			<point x="211" y="391" type="line"/>
			<point x="211" y="0" type="line"/>
			<point x="310" y="0" type="line"/>
			<point x="310" y="391" type="line"/>
			<point x="499" y="800" type="line"/>
		</contour>
		<contour>
			<point x="290" y="790" type="line"/>
			<point x="342" y="790" type="line"/>
			<point x="323" y="740" type="line"/>
			<point x="375" y="800" type="line"/>
			<point x="375" y="894" type="line"/>
		</contour>
		<contour>
			<point x="71" y="693" type="line"/>
			<point x="193" y="439" type="line"/>
			<point x="243" y="553" type="line"/>
			<point x="143" y="790" type="line"/>
			<point x="215" y="790" type="line"/>
			<point x="215" y="894" type="line"/>
		</contour>
	</outline>
</glyph>
<glyph name="circumflex" format="2">
	<advance width="350"/>
	<unicode hex="02C6"/>
	<anchor x="175" y="800" name="_top"/>
	<outline>
		<contour>
			<point x="175" y="877" type="line"/>
			<point x="79" y="816" type="line"/>
			<point x="50" y="736" type="line"/>
			<point x="138" y="800" type="line"/>
		</contour>
		<contour>
			<point x="249" y="924" type="line"/>
			<point x="194" y="871" type="line"/>
			<point x="254" y="746" type="line"/>
			<point x="295" y="800" type="line"/>
		</contour>
	</outline>
</glyph>
<glyph name="ring" format="2">
	<advance width="600"/>
	<unicode hex="02DA"/>
	<outline>
		<contour>
			<point x="363" y="686" type="line"/>
			<point x="363" y="679" type="line" smooth="yes"/>
			<point x="363" y="634"/>
			<point x="338" y="588"/>
			<point x="298" y="560" type="curve"/>
			<point x="385" y="559"/>
			<point x="424" y="592"/>
			<point x="424" y="680" type="curve" smooth="yes"/>
			<point x="424" y="715"/>
			<point x="419" y="731"/>
			<point x="413" y="747" type="curve"/>
		</contour>
		<contour>
			<point x="264" y="651" type="curve"/>
			<point x="218" y="599" type="line"/>
			<point x="207" y="610"/>
			<point x="201" y="622"/>
			<point x="201" y="634" type="curve" smooth="yes"/>
			<point x="201" y="644"/>
			<point x="202" y="651"/>
			<point x="208" y="657" type="curve" smooth="yes"/>
			<point x="270" y="718" type="line"/>
			<point x="261" y="707"/>
			<point x="259" y="690"/>
			<point x="259" y="679" type="curve" smooth="yes"/>
			<point x="259" y="668"/>
			<point x="261" y="657"/>
		</contour>
	</outline>
</glyph>
<glyph name="tilde" format="2">
	<advance width="578"/>
	<unicode hex="02DC"/>
	<anchor x="282" y="229" name="_top"/>
	<outline>
		<contour>
			<point x="448" y="365" type="line"/>
			<point x="407" y="341" type="line"/>
			<point x="397" y="304"/>
			<point x="379" y="269"/>
			<point x="350" y="248" type="curve"/>
			<point x="415" y="248"/>
			<point x="448" y="309"/>
			<point x="448" y="362" type="curve" smooth="yes"/>
		</contour>
		<contour>
			<point x="166" y="255" type="line"/>
			<point x="207" y="255" type="line"/>
			<point x="207" y="263"/>
			<point x="209" y="288"/>
			<point x="226" y="296" type="curve"/>
			<point x="184" y="276"/>
			<point x="166" y="268"/>
			<point x="166" y="259" type="curve" smooth="yes"/>
		</contour>
	</outline>
</glyph>
<glyph name="Germandbls" format="2">
	<advance width="649"/>
	<unicode hex="1E9E"/>
	<unicode hex="00DF"/>
	<outline>
		<contour>
			<point x="446" y="631" type="line"/>
			<point x="283" y="374" type="line"/>
			<point x="326" y="353" type="line"/>
			<point x="440" y="465" type="line"/>
			<point x="564" y="651" type="line"/>
			<point x="564" y="738" type="line"/>
		</contour>
		<contour>
			<point x="480" y="301" type="line"/>
			<point x="480" y="117" type="line" smooth="yes"/>
			<point x="480" y="54"/>
			<point x="452" y="3"/>
			<point x="393" y="-8" type="curve"/>
			<point x="511" y="-1"/>
			<point x="584" y="45"/>
			<point x="584" y="182" type="curve" smooth="yes"/>
			<point x="584" y="319" type="line" smooth="yes"/>
			<point x="584" y="356"/>
			<point x="580" y="375"/>
			<point x="568" y="400" type="curve"/>
		</contour>
		<contour>
			<point x="200" y="0" type="line"/>
			<point x="100" y="0" type="line"/>
			<point x="100" y="464" type="line" smooth="yes"/>
			<point x="100" y="487"/>
			<point x="103" y="502"/>
			<point x="112" y="512" type="curve" smooth="yes"/>
			<point x="216" y="639" type="line"/>
			<point x="205" y="624"/>
			<point x="200" y="603"/>
			<point x="200" y="580" type="curve" smooth="yes"/>
		</contour>
	</outline>
</glyph>
<glyph name="endash" format="2">
	<advance width="455"/>
	<unicode hex="2013"/>
	<outline>
		<contour>
			<point x="316" y="326" type="line"/>
			<point x="425" y="326" type="line"/>
			<point x="425" y="444" type="line"/>
		</contour>
	</outline>
</glyph>
<glyph name="emdash" format="2">
	<advance width="575"/>
	<unicode hex="2014"/>
	<outline>
		<contour>
			<point x="436" y="323" type="line"/>
			<point x="545" y="323" type="line"/>
			<point x="545" y="441" type="line"/>
		</contour>
	</outline>
</glyph>
<glyph name="dagger" format="2">
	<advance width="495"/>
	<unicode hex="2020"/>
	<outline>
		<contour>
			<point x="356" y="502" type="line"/>
			<point x="465" y="502" type="line"/>
			<point x="465" y="620" type="line"/>
		</contour>
		<contour>
			<point x="307" y="502" type="line"/>
			<point x="218" y="413" type="line"/>
			<point x="218" y="0" type="line"/>
			<point x="307" y="0" type="line"/>
		</contour>
		<contour>
			<point x="218" y="711" type="line"/>
			<point x="218" y="533" type="line"/>
			<point x="307" y="620" type="line"/>
			<point x="307" y="800" type="line"/>
		</contour>
	</outline>
</glyph>
<glyph name="daggerdbl" format="2">
	<advance width="495"/>
	<unicode hex="2021"/>
	<outline>
		<contour>
			<point x="356" y="502" type="line"/>
			<point x="465" y="502" type="line"/>
			<point x="465" y="620" type="line"/>
		</contour>
		<contour>
			<point x="218" y="231" type="line"/>
			<point x="307" y="320" type="line"/>
			<point x="307" y="502" type="line"/>
			<point x="218" y="413" type="line"/>
		</contour>
		<contour>
			<point x="218" y="711" type="line"/>
			<point x="218" y="531" type="line"/>
			<point x="307" y="620" type="line"/>
			<point x="307" y="800" type="line"/>
		</contour>
		<contour>
			<point x="307" y="202" type="line"/>
			<point x="218" y="113" type="line"/>
			<point x="218" y="0" type="line"/>
			<point x="307" y="0" type="line"/>
		</contour>
		<contour>
			<point x="356" y="202" type="line"/>
			<point x="465" y="202" type="line"/>
			<point x="465" y="320" type="line"/>
		</contour>
	</outline>
</glyph>
<glyph name="bullet" format="2">
	<advance width="303"/>
	<unicode hex="2022"/>
	<outline>
		<contour>
			<point x="35" y="280" type="line"/>
			<point x="269" y="280" type="line"/>
			<point x="269" y="526" type="line"/>
		</contour>
	</outline>
</glyph>
<glyph name="guilsinglleft" format="2">
	<advance width="478"/>
	<unicode hex="2039"/>
	<outline>
		<contour>
			<point x="110" y="375" type="line"/>
			<point x="299" y="167" type="line"/>
			<point x="318" y="180" type="line"/>
			<point x="188" y="416" type="line"/>
			<point x="318" y="652" type="line"/>
			<point x="315" y="654" type="line"/>
		</contour>
	</outline>
</glyph>
<glyph name="guilsinglright" format="2">
	<advance width="350"/>
	<unicode hex="203A"/>
	<outline>
		<contour>
			<point x="318" y="427" type="line"/>
			<point x="84" y="678" type="line"/>
			<point x="84" y="645" type="line"/>
			<point x="241" y="392" type="line"/>
			<point x="79" y="155" type="line"/>
			<point x="82" y="153" type="line"/>
			<point x="318" y="405" type="line"/>
		</contour>
	</outline>
</glyph>
<glyph name="fraction" format="2">
	<advance width="395"/>
	<unicode hex="2044"/>
	<outline>
		<contour>
			<point x="265" y="675" type="line"/>
			<point x="58" y="73" type="line"/>
			<point x="130" y="0" type="line"/>
			<point x="390" y="800" type="line"/>
		</contour>
	</outline>
</glyph>
<glyph name="euro" format="2">
	<advance width="645"/>
	<unicode hex="20AC"/>
	<outline>
		<contour>
			<point x="489" y="176" type="line"/>
			<point x="489" y="154" type="line" smooth="yes"/>
			<point x="489" y="60"/>
			<point x="479" y="19"/>
			<point x="446" y="-3" type="curve"/>
			<point x="552" y="15"/>
			<point x="589" y="73"/>
			<point x="589" y="182" type="curve" smooth="yes"/>
			<point x="589" y="295" type="line"/>
		</contour>
		<contour>
			<point x="150" y="137" type="curve"/>
			<point x="250" y="238" type="line"/>
			<point x="250" y="192" type="line" smooth="yes"/>
			<point x="250" y="188"/>
			<point x="250" y="174"/>
			<point x="251" y="170" type="curve"/>
			<point x="172" y="92" type="line"/>
			<point x="156" y="108"/>
			<point x="150" y="122"/>
		</contour>
		<contour>
			<point x="454" y="608" type="line"/>
			<point x="454" y="534" type="line"/>
			<point x="589" y="534" type="line"/>
			<point x="589" y="618" type="line" smooth="yes"/>
			<point x="589" y="667"/>
			<point x="581" y="708"/>
			<point x="562" y="738" type="curve"/>
		</contour>
		<contour>
			<point x="250" y="355" type="line"/>
			<point x="148" y="252" type="line"/>
			<point x="148" y="333" type="line"/>
			<point x="250" y="436" type="line"/>
		</contour>
		<contour>
			<point x="250" y="554" type="line"/>
			<point x="148" y="451" type="line"/>
			<point x="148" y="543" type="line"/>
			<point x="262" y="656" type="line"/>
			<point x="253" y="646"/>
			<point x="250" y="631"/>
			<point x="250" y="608" type="curve" smooth="yes"/>
		</contour>
		<component base="equal" xOffset="-51" yOffset="20"/>
	</outline>
</glyph>
<glyph name="VTF" format="2">
	<advance width="1292"/>
	<outline>
		<contour>
			<point x="358" y="546" type="line"/>
			<point x="235" y="73" type="line"/>
			<point x="307" y="0" type="line"/>
			<point x="483" y="671" type="line"/>
		</contour>
		<contour>
			<point x="50" y="719" type="line"/>
			<point x="211" y="107" type="line"/>
			<point x="255" y="271" type="line"/>
			<point x="122" y="800" type="line"/>
		</contour>
		<contour>
			<point x="613" y="552" type="line"/>
			<point x="613" y="0" type="line"/>
			<point x="713" y="0" type="line"/>
			<point x="713" y="670" type="line"/>
		</contour>
		<component base="F" xOffset="779"/>
	</outline>
</glyph>
